<?xml version="1.0" standalone="no"?>
<!DOCTYPE svg PUBLIC "-//W3C//DTD SVG 1.1//EN" "http://www.w3.org/Graphics/SVG/1.1/DTD/svg11.dtd" >
<svg xmlns="http://www.w3.org/2000/svg">
<metadata>Generated by IcoMoon</metadata>
<defs>
<font id="icomoon" horiz-adv-x="1024">
<font-face units-per-em="1024" ascent="960" descent="-64" />
<missing-glyph horiz-adv-x="1024" />
<glyph unicode="&#x20;" horiz-adv-x="512" d="" />
<glyph unicode="&#xe900;" glyph-name="play" d="M512 960c-284.077 0-512-227.923-512-512s227.923-512 512-512c284.077 0 512 227.923 512 512s-227.923 512-512 512zM416.206 256.413v383.174l320.413-191.587-320.413-191.587z" />
<glyph unicode="&#xe901;" glyph-name="message-btn" horiz-adv-x="1152" d="M832 960v-64h256v-640h-768v256l-320-288 320-288v256h832v768z" />
<glyph unicode="&#xe902;" glyph-name="close" d="M607.573 448l395.947 395.947c27.307 27.307 27.307 68.267 0 95.573s-68.267 27.307-95.573 0l-395.947-395.947-395.947 395.947c-27.307 27.307-68.267 27.307-95.573 0s-27.307-68.267 0-95.573l395.947-395.947-395.947-395.947c-27.307-27.307-27.307-68.267 0-95.573s68.267-27.307 95.573 0l395.947 395.947 395.947-395.947c27.307-27.307 68.267-27.307 95.573 0s27.307 68.267 0 95.573l-395.947 395.947z" />
<glyph unicode="&#xe903;" glyph-name="bireysel-emeklilik-basvurusu" horiz-adv-x="1075" d="M1041.067 132.267l29.013-27.307c-146.773-105.813-327.68-168.96-523.947-168.96-204.8 0-394.24 68.267-546.133 184.32l29.013 25.6c68.267-51.2 145.067-92.16 226.987-121.173l81.92 288.427h-87.040l-98.987 641.707 37.547 5.12 61.44-407.893h353.28c40.96 0 73.387-32.427 73.387-73.387v-129.707h-37.547v129.707c0 20.48-17.067 37.547-37.547 37.547h-344.747l25.6-167.253h547.84v-34.133h-76.8l66.56-293.547c78.507 25.6 153.6 63.147 220.16 110.933zM716.8 313.173h-341.333l-85.333-300.373c80.213-25.6 165.547-39.253 256-39.253 83.627 0 163.84 11.947 238.933 34.133l-68.267 305.493z" />
<glyph unicode="&#xe904;" glyph-name="bireysel-kredi-basvurusu" d="M602.453 430.933c0-47.787-11.947-85.333-32.427-112.64-22.187-27.307-51.2-40.96-90.453-40.96v174.080l66.56 29.013v32.427l-66.56-29.013v44.373l66.56 29.013v32.427l-66.56-29.013v88.747h-34.133v-102.4l-59.733-25.6v-32.427l59.733 25.6v-44.373l-59.733-25.6v-32.427l59.733 25.6v-186.027c13.653-1.707 25.6-3.413 34.133-3.413 30.72 0 59.733 6.827 83.627 22.187s42.667 35.84 54.613 64.853c11.947 27.307 18.773 59.733 18.773 95.573v30.72h-34.133v-30.72zM512 960c-283.307 0-512-228.693-512-512s228.693-512 512-512c283.307 0 512 228.693 512 512s-228.693 512-512 512zM512-29.867c-264.533 0-477.867 213.333-477.867 477.867s213.333 477.867 477.867 477.867c264.533 0 477.867-213.333 477.867-477.867s-213.333-477.867-477.867-477.867z" />
<glyph unicode="&#xe905;" glyph-name="bot-user" horiz-adv-x="1147" d="M851.968 427.52c32.768 57.344 57.344 114.688 57.344 180.224 0 196.608-155.648 352.256-344.064 352.256s-344.064-155.648-344.064-344.064c0-73.728 24.576-139.264 57.344-188.416-163.84-106.496-278.528-286.72-278.528-491.52h163.84c0 163.84 98.304 311.296 245.76 376.832 0 0 0 0 0 0 49.152-24.576 98.304-40.96 155.648-40.96s114.688 16.384 163.84 40.96c0 0 0 0 0 0 147.456-57.344 253.952-204.8 253.952-376.832h163.84c0 212.992-114.688 393.216-294.912 491.52zM565.248 435.712c-98.304 0-180.224 81.92-180.224 180.224s81.92 180.224 180.224 180.224 180.224-81.92 180.224-180.224-81.92-180.224-180.224-180.224z" />
<glyph unicode="&#xe906;" glyph-name="facebook-user" horiz-adv-x="1195" d="M1173.333-64h-85.333c-29.867 179.2-157.867 328.533-324.267 392.533-51.2-34.133-115.2-51.2-179.2-51.2s-128 21.333-179.2 51.2c-162.133-64-290.133-213.333-320-392.533h-85.333c29.867 200.533 157.867 371.2 337.067 452.267-55.467 59.733-85.333 140.8-85.333 230.4 0 187.733 153.6 341.333 337.067 341.333s337.067-153.6 337.067-341.333c0-89.6-34.133-166.4-85.333-230.4 174.933-81.067 302.933-251.733 332.8-452.267zM840.533 618.667c0 140.8-115.2 256-256 256s-256-115.2-256-256c0-140.8 115.2-256 256-256 145.067 0 256 115.2 256 256z" />
<glyph unicode="&#xe907;" glyph-name="kredi-karti-basvurusu" horiz-adv-x="1263" d="M180.907 448l614.4-34.133 1.707 34.133-614.4 34.133zM174.080 347.307l308.907-17.067 1.707 34.133-307.2 17.067zM1167.36 901.973l-1025.707 58.027c-1.707 0-5.12 0-6.827 0-54.613 0-98.987-42.667-102.4-95.573l-32.427-575.147c-3.413-56.32 40.96-104.107 97.28-107.52l20.48-1.707 10.24-163.84c3.413-46.080 40.96-80.213 87.040-80.213 1.707 0 3.413 0 5.12 0l868.693 52.907c47.787 3.413 85.333 44.373 81.92 90.453l-3.413 52.907c35.84 13.653 61.44 47.787 63.147 88.747l32.427 575.147c3.413 54.613-39.253 104.107-95.573 105.813zM61.44 760.32l1162.24-64.853-5.12-102.4-1163.947 66.56 6.827 100.693zM1087.147 23.040l-868.693-52.907c-1.707 0-1.707 0-3.413 0-27.307 0-51.2 22.187-52.907 49.493l-8.533 158.72 969.387-54.613c1.707 0 3.413 0 5.12 0s3.413 0 5.12 0l3.413-46.080c1.707-29.013-20.48-52.907-49.493-54.613zM1196.373 222.72c-1.707-35.84-32.427-63.147-68.267-63.147-1.707 0-3.413 0-3.413 0l-1025.707 56.32c-18.773 1.707-35.84 8.533-47.787 22.187s-18.773 30.72-17.067 47.787l18.773 337.92 1162.24-64.853-18.773-336.213zM1225.387 729.6l-1162.24 64.853 3.413 66.56c1.707 37.547 32.427 64.853 68.267 64.853 1.707 0 3.413 0 5.12 0l1025.707-56.32c18.773-1.707 35.84-8.533 47.787-22.187s18.773-30.72 17.067-47.787l-5.12-69.973zM259.413 106.667l3.413-34.133 307.2 20.48-1.707 34.133z" />
<glyph unicode="&#xe908;" horiz-adv-x="768" d="M40.96 404.48c-25.6 53.76-38.4 110.080-38.4 168.96 0 212.48 171.52 386.56 384 386.56s384-174.080 384-386.56c0-58.88-12.8-115.2-38.4-168.96 0-2.56 0-2.56 0-5.12-51.2-122.88-289.28-401.92-343.040-465.92-56.32 64-294.4 345.6-345.6 468.48z" />
<glyph unicode="&#xe909;" horiz-adv-x="768" d="M486.4 552.96c2.56 0 2.56-2.56 0 0 2.56 0 2.56 0 5.12-2.56 0 0 0 0 0-2.56 0 0 0 0 0-2.56v-133.12c0-2.56 0-7.68-2.56-10.24 0-2.56-2.56-5.12-5.12-7.68l-81.92-71.68c0 0 0 0-2.56-2.56 0 0-2.56 0-2.56 0s-2.56 0-2.56 0c0 0-2.56 0-2.56 2.56 0 0 0 0 0 2.56 0 0 0 2.56 0 2.56v61.44c0 2.56 0 7.68 2.56 10.24 0 2.56 2.56 5.12 5.12 7.68h2.56v43.52c0 0 0 0 0 0s-2.56 0-2.56 0c0 0-2.56 0-2.56 0s-2.56 0-2.56 0c0 0 0 0 0 2.56 0 0 0 2.56 0 2.56v46.080c0 2.56 0 7.68 2.56 10.24 0 2.56 2.56 5.12 5.12 7.68l2.56 2.56v35.84c0 0 0 0 0 0s0 0 0 0-2.56 0-2.56 0c0 0-2.56 0-2.56 0s-2.56 0-2.56 2.56c0 0 0 0 0 2.56 0 0 0 2.56 0 2.56v61.44c0 2.56 0 7.68 2.56 10.24 0 2.56 2.56 5.12 5.12 7.68l81.92 71.68c0 0 0 0 2.56 2.56 0 0 2.56 0 2.56 0s2.56 0 2.56 0c0 0 2.56 0 2.56-2.56 0 0 0 0 0-2.56 0 0 0-2.56 0-2.56v-143.36c0-5.12-2.56-7.68-2.56-10.24-2.56-2.56-2.56-5.12-5.12-7.68-5.12 0-5.12 0-2.56 2.56 0-2.56 0 0 0 0zM476.16 609.28c0 2.56 0 2.56 0 0 0 2.56 0 2.56-2.56 5.12 0 0 0 0-2.56 2.56 0 0-2.56 0-2.56 0s-2.56 0-2.56 0c0 0-2.56 0-2.56 0l-48.64-40.96v-35.84l51.2 43.52c2.56 2.56 5.12 5.12 5.12 7.68s2.56 5.12 2.56 10.24v7.68zM476.16 501.76c0 2.56 0 2.56 0 0 0 2.56 0 2.56-2.56 5.12 0 0 0 0-2.56 0 0 0-2.56 0-2.56 0s-2.56 0-2.56 0c0 0-2.56 0-2.56-2.56l-48.64-40.96v-40.96l51.2 43.52c2.56 2.56 5.12 5.12 5.12 7.68s2.56 5.12 2.56 10.24v17.92zM437.76 696.32c0 0 0 0 0 0s0 2.56 0 0l-5.12 23.040c0 2.56 0 2.56 0 2.56s0 0 0 0 0 0 0 0 0 0 0 0 0 0 0 0 0 0 0 0l-20.48-17.92v23.040l25.6 20.48c0 0 0 0 0 0s0 0 0 0v25.6c0 2.56 0 2.56 0 2.56s0 0 0 0 0 0 0 0 0 0 0 0 0 0 0 0 0 0 0 0l-38.4-33.28c0 0 0 0 0 0s0 0 0 0v-76.8c0-2.56 0-2.56 0-2.56s0 0 0 0 0 0 0 0 0 0 0 0 0 0 0 0 0 0 0 0l38.4 33.28zM376.32 570.88v25.6c0 15.36 0 28.16 0 28.16 0 5.12-2.56 7.68-2.56 10.24s-2.56 5.12-5.12 7.68l-81.92 71.68c0 2.56-2.56 2.56-2.56 2.56s-2.56 0-2.56 0c0 0-2.56 0-2.56 0-2.56-2.56-2.56-2.56-2.56-2.56s0-2.56 0-2.56c0 0 0-2.56 0-2.56v-58.88c0-5.12 2.56-7.68 2.56-10.24s2.56-5.12 5.12-7.68l79.36-69.12-20.48-17.92-56.32 48.64c0 2.56-2.56 2.56-2.56 2.56s-2.56 0-2.56 0c0 0-2.56 0-2.56 0-2.56-2.56-2.56-2.56-2.56-2.56s0-2.56 0-2.56c0 0 0-2.56 0-2.56v-46.080c0-5.12 2.56-7.68 2.56-10.24s2.56-5.12 5.12-7.68l15.36-15.36-17.92-15.36c-2.56 0-2.56-2.56-2.56-2.56s2.56 2.56 2.56 2.56v0c0 0 0 0 0 0s-2.56-2.56-2.56-5.12v0c0-5.12-2.56-7.68-2.56-15.36 0 0 0-2.56 0-2.56s0-2.56 0-2.56c0 0 0-56.32 0-56.32 0-5.12 2.56-7.68 2.56-10.24s2.56-5.12 5.12-7.68l81.92-71.68c0-2.56 2.56-2.56 2.56-2.56s2.56 0 2.56 0c0 0 2.56 0 2.56 0 2.56 2.56 2.56 2.56 2.56 2.56s0 2.56 0 2.56c0 0 0 2.56 0 2.56v61.44c0 5.12-2.56 7.68-2.56 10.24s-2.56 5.12-5.12 7.68l-79.36 69.12c0 0 0 0 0 0s0 0 0 0 0 0 0 0l25.6 20.48 51.2-46.080c0-2.56 2.56-2.56 2.56-2.56s2.56 0 2.56 0c0 0 2.56 0 2.56 0 2.56 2.56 2.56 2.56 2.56 2.56s0 2.56 0 2.56c0 0 0 2.56 0 2.56v46.080c0 5.12-2.56 7.68-2.56 10.24s-2.56 5.12-5.12 7.68l-12.8 12.8 12.8 10.24c2.56 2.56 2.56 2.56 2.56 2.56-2.56-2.56-2.56-2.56-2.56-2.56s2.56 2.56 5.12 7.68v0c0 5.12 2.56 7.68 2.56 15.36 0 0 0 2.56 0 5.12 0-2.56 0-2.56 0 0zM376.32 716.8c0 0 0 0 0 0l2.56 28.16c0 0 0 0 0 0s0 0 0 0l-38.4 33.28c0 0 0 0 0 0s0 0 0 0 0 0 0 0 0 0 0 0c-2.56 0-2.56 0-2.56 0 0-2.56 0-2.56 0-2.56v-25.6c0 0 0 0 0 0s0 0 0 0l12.8-10.24v-25.6l-5.12 5.12c0 0 0 0 0 0s0 0 0 0 0 0 0 0 0 0 0 0c-2.56 0-2.56 0-2.56 0 0-2.56 0-2.56 0-2.56v-23.040c0 0 0 0 0 0s0 0 0 0l28.16-23.040c0 0 0 0 0 0s0 0 0 0 0 0 0 0 0 0 0 0 0 0 0 0c0 2.56 0 2.56 0 2.56v23.040c0 0 0 0 0 0s0 0 0 0l-5.12 5.12v23.040l7.68-7.68c0 0 0 0 0 0s0-2.56 2.56 0c-2.56 0 0 0 0 0s0 0 0 0 0 0 0 0z" />
<glyph unicode="&#xe90a;" horiz-adv-x="768" d="M40.96 404.48c-25.6 53.76-38.4 110.080-38.4 168.96 0 212.48 171.52 386.56 384 386.56s384-174.080 384-386.56c0-58.88-12.8-115.2-38.4-168.96 0-2.56 0-2.56 0-5.12-51.2-122.88-289.28-401.92-343.040-465.92-56.32 64-294.4 345.6-345.6 468.48z" />
<glyph unicode="&#xe90b;" horiz-adv-x="768" d="M238.080 668.16l-51.2-143.36h30.72l10.24 30.72h48.64l10.24-30.72h30.72l-51.2 143.36h-28.16zM235.52 581.12l17.92 46.080 15.36-46.080h-33.28zM312.32 640h35.84v-115.2h30.72v115.2h35.84v28.16h-102.4v-28.16zM529.92 665.6l-30.72-58.88-30.72 58.88h-33.28v-143.36h28.16v92.16l33.28-58.88 33.28 58.88v-92.16h28.16v143.36h-28.16z" />
<glyph unicode="&#xe90c;" glyph-name="musteri-iletisim-merkezi" horiz-adv-x="2752" d="M2738.811 324.72h-1799.219c-2.221 0-4.443 2.221-4.443 4.443s2.221 4.443 4.443 4.443h1799.219c2.221 0 4.443-2.221 4.443-4.443s-2.221-4.443-4.443-4.443zM2492.252 733.432c0 11.106-4.443 17.77-13.328 17.77s-15.549-6.664-15.549-17.77v-57.753h-35.54v57.753c0 11.106-4.443 17.77-13.328 17.77s-15.549-6.664-15.549-17.77v-57.753h-35.54v106.62h35.54v-15.549c6.664 8.885 15.549 17.77 31.098 17.77 13.328 0 24.434-6.664 28.876-17.77 8.885 11.106 19.991 17.77 33.319 17.77 22.213 0 35.54-13.328 35.54-37.761v-68.859h-35.54v55.531zM2307.887 675.679v106.62h35.54v-106.62h-35.54zM2305.666 817.839h37.761v-26.655h-37.761v26.655zM2259.020 673.458l-11.106-31.098-28.876 13.328 13.328 19.991c-11.106 2.221-22.213 6.664-31.098 13.328l13.328 22.213c11.106-8.885 24.434-11.106 35.54-11.106 6.664 0 8.885 2.221 8.885 6.664v0c0 4.443-6.664 6.664-15.549 8.885-19.991 4.443-35.54 13.328-35.54 33.319v0c0 22.213 17.77 35.54 39.983 35.54 15.549 0 31.098-4.443 42.204-13.328l-11.106-24.434c-11.106 6.664-22.213 8.885-31.098 8.885-4.443 0-8.885-2.221-8.885-4.443v0c0-4.443 6.664-6.664 15.549-8.885 19.991-6.664 35.54-13.328 35.54-33.319v0c2.221-22.213-11.106-33.319-31.098-35.54zM2152.399 817.839h37.761v-26.655h-37.761v26.655zM2154.62 782.299h35.54v-106.62h-35.54v106.62zM2127.965 469.102v106.62h35.54v-106.62h-35.54zM2125.744 611.262h37.761v-26.655h-37.761v26.655zM2114.638 715.662c0-6.664 2.221-11.106 8.885-11.106 4.443 0 8.885 2.221 13.328 4.443v-28.876c-6.664-4.443-15.549-6.664-24.434-6.664-22.213 0-33.319 8.885-33.319 35.54v42.204h-13.328v31.098h11.106v26.655h35.54v-26.655h24.434v-31.098h-24.434v-35.54zM2112.416 469.102h-93.293v24.434l46.646 51.089h-44.425v28.876h93.293v-24.434l-46.646-51.089h46.646v-28.876zM1988.026 717.883c2.221-11.106 11.106-17.77 22.213-17.77 8.885 0 15.549 4.443 22.213 11.106l19.991-17.77c-8.885-13.328-24.434-22.213-44.425-22.213-31.098 0-53.31 22.213-53.31 55.531v0c0 31.098 22.213 55.531 51.089 55.531 35.54 0 51.089-26.655 51.089-57.753 0-2.221 0-4.443 0-6.664h-68.859zM2005.796 755.644c-8.885 0-15.549-6.664-17.77-19.991h35.54c-2.221 13.328-8.885 19.991-17.77 19.991zM1903.618 817.839h35.54v-142.161h-35.54v142.161zM1843.644 813.397h35.54v-137.718h-35.54v137.718zM1845.866 848.937h31.098v-26.655h-31.098v26.655zM1961.371 493.536c8.885 0 15.549 2.221 22.213 11.106l19.991-17.77c-8.885-13.328-24.434-22.213-44.425-22.213-31.098 0-55.531 22.213-55.531 55.531v0c0 31.098 22.213 55.531 51.089 55.531 35.54 0 51.089-26.655 51.089-57.753 0-2.221 0-4.443 0-6.664h-68.859c6.664-11.106 13.328-17.77 24.434-17.77zM1974.698 529.076c-2.221 11.106-8.885 19.991-17.77 19.991s-15.549-6.664-17.77-19.991h35.54zM1905.839 573.501l-35.54-42.204 35.54-64.416h-39.983l-19.991 35.54-8.885-8.885v-24.434h-35.54v142.161h35.54v-73.302l26.655 35.54h42.204zM1757.015 500.2v-33.319h-35.54v106.62h35.54v-22.213c6.664 15.549 15.549 24.434 31.098 22.213v-39.983h-2.221c-17.77 2.221-28.876-8.885-28.876-33.319zM1732.581 675.679v106.62h35.54v-106.62h-35.54zM1732.581 817.839h37.761v-26.655h-37.761v26.655zM1688.156 708.998v-33.319h-35.54v106.62h35.54v-22.213c6.664 15.549 15.549 24.434 31.098 22.213v-39.983h-2.221c-17.77 2.221-28.876-8.885-28.876-33.319zM1659.28 493.536c8.885 0 15.549 2.221 22.213 11.106l19.991-17.77c-8.885-13.328-24.434-22.213-44.425-22.213-31.098 0-55.531 22.213-55.531 55.531v0c0 31.098 22.213 55.531 51.089 55.531 35.54 0 51.089-26.655 51.089-57.753 0-2.221 0-4.443 0-6.664h-68.859c6.664-11.106 13.328-17.77 24.434-17.77zM1672.607 529.076c-2.221 11.106-8.885 19.991-17.77 19.991s-15.549-6.664-17.77-19.991h35.54zM1568.208 717.883c2.221-11.106 11.106-17.77 22.213-17.77 8.885 0 15.549 4.443 22.213 11.106l19.991-17.77c-8.885-13.328-24.434-22.213-44.425-22.213-31.098 0-55.531 22.213-55.531 55.531v0c0 31.098 22.213 55.531 51.089 55.531 35.54 0 51.089-26.655 51.089-57.753 0-2.221 0-4.443 0-6.664h-66.638zM1585.978 755.644c-8.885 0-15.549-6.664-17.77-19.991h35.54c-2.221 13.328-8.885 19.991-17.77 19.991zM1501.57 715.662c0-6.664 2.221-11.106 8.885-11.106 4.443 0 8.885 2.221 13.328 4.443v-28.876c-6.664-4.443-15.549-6.664-24.434-6.664-22.213 0-33.319 8.885-33.319 35.54v42.204h-11.106v31.098h11.106v26.655h35.54v-26.655h24.434v-31.098h-24.434v-35.54zM1446.039 469.102v135.497h37.761l31.098-53.31 31.098 53.31h37.761v-137.718h-35.54v79.965l-31.098-53.31-33.319 53.31v-77.744h-37.761zM1412.72 673.458l-11.106-31.098-28.876 13.328 13.328 19.991c-11.106 2.221-22.213 6.664-31.098 13.328l13.328 22.213c11.106-8.885 24.434-11.106 35.54-11.106 6.664 0 8.885 2.221 8.885 6.664v0c0 4.443-6.664 6.664-15.549 8.885-19.991 4.443-35.54 13.328-35.54 33.319v0c0 22.213 17.77 35.54 39.983 35.54 15.549 0 31.098-4.443 42.204-13.328l-11.106-24.434c-11.106 6.664-22.213 8.885-31.098 8.885-4.443 0-8.885-2.221-8.885-4.443v0c0-4.443 6.664-6.664 15.549-8.885 19.991-6.664 35.54-13.328 35.54-33.319v0c2.221-22.213-8.885-33.319-31.098-35.54zM1310.542 689.007c-6.664-8.885-15.549-17.77-31.098-17.77-22.213 0-35.54 15.549-35.54 39.983v71.080h35.54v-57.753c0-11.106 6.664-17.77 13.328-17.77 8.885 0 15.549 6.664 15.549 17.77v57.753h35.54v-106.62h-33.319v13.328zM1299.436 817.839h31.098v-28.876h-31.098v28.876zM1261.675 817.839h31.098v-28.876h-31.098v28.876zM1188.373 753.423l-33.319-53.31-33.319 53.31v-77.744h-35.54v137.718h37.761l31.098-53.31 31.098 53.31h37.761v-137.718h-35.54v77.744zM832.972 353.597c0 2.221 0 2.221 0 0 0 2.221 0 2.221 0 0 0 0 0 0 0 0v0c0-4.443 0-4.443 0-6.664 0 0 0 0 0-2.221s0-4.443 0-6.664c-2.221-6.664-4.443-15.549-8.885-19.991 0 0-2.221-2.221-2.221-2.221s0-2.221-2.221-2.221c-8.885-11.106-22.213-17.77-37.761-19.991-17.77 0-35.54 8.885-44.425 22.213-6.664 8.885-8.885 17.77-8.885 31.098 0 59.974 0 119.948 0 179.922 0 11.106 4.443 22.213 11.106 31.098 2.221 2.221 6.664 6.664 11.106 15.549-4.443 53.31-28.876 306.534-326.525 306.534-299.87 0-324.304-253.223-326.525-304.312 4.443-8.885 8.885-13.328 11.106-15.549 6.664-8.885 11.106-19.991 11.106-31.098 0-59.974 0-119.948 0-179.922 0-11.106-4.443-22.213-8.885-31.098-8.885-13.328-24.434-22.213-44.425-22.213-15.549 0-28.876 8.885-37.761 19.991 0 0 0 2.221-2.221 2.221 0 0-2.221 2.221-2.221 2.221-4.443 6.664-6.664 13.328-8.885 19.991 0 2.221 0 4.443 0 6.664v2.221c0 2.221 0 4.443 0 6.664v0c0 0 0 2.221 0 2.221s0 0 0 0 0 0 0-2.221c0 0 0 2.221 0 2.221-4.443 68.859-2.221 117.727-2.221 146.603 0 2.221 0 2.221 0 4.443 0 17.77 4.443 37.761 13.328 48.868 0 2.221 2.221 2.221 2.221 4.443 4.443 4.443 6.664 8.885 8.885 13.328 11.106 111.063 71.080 375.393 384.278 375.393v0c322.082-2.221 377.614-279.879 386.499-384.278 0 0 0 0 0 0 17.77-8.885 24.434-35.54 24.434-57.753 0-2.221 0-4.443 0-4.443 2.221-31.098 4.443-79.965 0-151.046 0 2.221 0 0 0 0zM224.347 338.048c33.319 0 53.31-24.434 53.31-59.974v-2.221c0-35.54-19.991-59.974-53.31-59.974s-53.31 24.434-53.31 59.974v2.221c0 33.319 19.991 59.974 53.31 59.974zM204.356 273.631c0-22.213 8.885-33.319 19.991-33.319s19.991 11.106 19.991 33.319v2.221c0 22.213-8.885 33.319-19.991 33.319s-19.991-11.106-19.991-33.319v-2.221zM346.516 338.048c33.319 0 53.31-24.434 53.31-59.974v-2.221c0-35.54-19.991-59.974-53.31-59.974s-53.31 24.434-53.31 59.974v2.221c0 33.319 19.991 59.974 53.31 59.974zM326.525 273.631c0-22.213 8.885-33.319 19.991-33.319s19.991 11.106 19.991 33.319v2.221c0 22.213-8.885 33.319-19.991 33.319s-19.991-11.106-19.991-33.319v-2.221zM675.262 273.631c0-35.54-19.991-59.974-53.31-59.974s-53.31 24.434-53.31 59.974v2.221c0 35.54 19.991 59.974 53.31 59.974s53.31-24.434 53.31-59.974v-2.221zM641.944 275.852c0 22.213-8.885 33.319-19.991 33.319s-19.991-11.106-19.991-33.319v-2.221c0-22.213 8.885-33.319 19.991-33.319s19.991 11.106 19.991 33.319v2.221zM593.076 713.44c33.319 0 53.31-24.434 53.31-59.974v-4.443c0-35.54-19.991-59.974-53.31-59.974s-53.31 24.434-53.31 59.974v2.221c0 35.54 19.991 62.195 53.31 62.195zM573.085 649.024c0-22.213 8.885-33.319 19.991-33.319s19.991 11.106 19.991 33.319v2.221c0 22.213-8.885 33.319-19.991 33.319s-19.991-11.106-19.991-33.319v-2.221zM581.97 464.659v-2.221c0-35.54-19.991-59.974-53.31-59.974s-53.31 24.434-53.31 59.974v2.221c0 35.54 19.991 59.974 53.31 59.974s53.31-24.434 53.31-59.974zM508.668 464.659v-2.221c0-22.213 8.885-33.319 19.991-33.319s19.991 11.106 19.991 33.319v2.221c0 22.213-8.885 33.319-19.991 33.319s-19.991-11.106-19.991-33.319zM499.783 338.048c33.319 0 53.31-24.434 53.31-59.974v-2.221c0-35.54-19.991-59.974-53.31-59.974s-53.31 24.434-53.31 59.974v2.221c0 33.319 19.991 59.974 53.31 59.974zM479.792 273.631c0-22.213 8.885-33.319 19.991-33.319s19.991 11.106 19.991 33.319v2.221c0 22.213-8.885 33.319-19.991 33.319s-19.991-11.106-19.991-33.319v-2.221zM459.8 489.093v0c0-15.549-8.885-26.655-24.434-39.983l-22.213-17.77h46.646v-26.655h-91.072v22.213l42.204 35.54c11.106 8.885 15.549 15.549 15.549 22.213s-4.443 11.106-13.328 11.106c-8.885 0-15.549-4.443-24.434-13.328l-19.991 19.991c13.328 13.328 26.655 22.213 46.646 22.213 26.655 0 44.425-13.328 44.425-35.54zM253.223 589.050c-33.319 0-53.31 24.434-53.31 59.974v2.221c0 35.54 19.991 59.974 53.31 59.974s53.31-24.434 53.31-59.974v-2.221c0-35.54-19.991-59.974-53.31-59.974zM273.215 651.245c0 22.213-8.885 33.319-19.991 33.319s-19.991-11.106-19.991-33.319v-2.221c0-22.213 8.885-33.319 19.991-33.319s19.991 11.106 19.991 33.319v2.221zM353.18 489.093v0c0-15.549-8.885-26.655-24.434-39.983l-22.213-17.77h46.646v-26.655h-91.072v22.213l42.204 35.54c11.106 8.885 15.549 15.549 15.549 22.213s-4.443 11.106-13.328 11.106c-8.885 0-15.549-4.443-24.434-13.328l-19.991 19.991c13.328 13.328 26.655 22.213 46.646 22.213 26.655 0 44.425-13.328 44.425-35.54zM417.597 624.59c0-22.213-19.991-35.54-48.868-35.54s-48.868 13.328-48.868 35.54v0c0 13.328 8.885 22.213 19.991 28.876-8.885 4.443-15.549 13.328-15.549 26.655v0c0 19.991 17.77 33.319 44.425 33.319s44.425-13.328 44.425-33.319v0c0-13.328-6.664-19.991-15.549-26.655 11.106-6.664 19.991-13.328 19.991-28.876v0zM384.278 675.679c0 8.885-6.664 13.328-13.328 13.328-8.885 0-13.328-4.443-13.328-13.328v0c0-8.885 6.664-13.328 13.328-13.328s13.328 4.443 13.328 13.328v0zM386.499 626.811c0 8.885-6.664 13.328-15.549 13.328s-15.549-4.443-15.549-13.328v0c0-8.885 6.664-13.328 15.549-13.328 8.885-2.221 15.549 4.443 15.549 13.328v0zM521.996 631.254v0c0-26.655-19.991-42.204-48.868-42.204-17.77 0-33.319 6.664-44.425 15.549l15.549 22.213c8.885-6.664 17.77-11.106 26.655-11.106 11.106 0 17.77 6.664 17.77 15.549v0c0 8.885-6.664 13.328-17.77 13.328-6.664 0-13.328-2.221-17.77-4.443l-17.77 8.885 4.443 59.974h77.744v-26.655h-51.089l-2.221-17.77c4.443 2.221 11.106 2.221 17.77 2.221 22.213 2.221 39.983-8.885 39.983-35.54zM457.579 35.957c28.876 2.221 51.089 0 62.195-17.77 22.213 6.664 44.425 13.328 64.416 24.434 37.761 19.991 71.080 48.868 95.514 82.187 26.655 33.319 44.425 73.302 57.753 113.284 4.443 15.549 8.885 31.098 13.328 44.425 8.885-4.443 22.213-8.885 42.204-6.664-4.443-17.77-8.885-33.319-15.549-51.089-15.549-42.204-37.761-84.408-66.638-122.169s-66.638-68.859-108.842-88.85c-22.213-11.106-46.646-19.991-73.302-26.655-2.221-26.655-28.876-35.54-62.195-37.761-35.54-2.221-88.85 0-91.072 35.54-4.443 35.54 46.646 46.646 82.187 51.089zM1046.213 120.364l13.328 53.31h19.991l13.328-53.31 11.106 53.31h22.213l-22.213-88.85h-19.991l-13.328 53.31-13.328-53.31h-19.991l-22.213 88.85h22.213l8.885-53.31zM1163.939 120.364l13.328 53.31h19.991l13.328-53.31 11.106 53.31h22.213l-22.213-88.85h-19.991l-13.328 53.31-13.328-53.31h-19.991l-22.213 88.85h22.213l8.885-53.31zM1283.887 120.364l13.328 53.31h19.991l13.328-53.31 11.106 53.31h22.213l-22.213-88.85h-19.991l-13.328 53.31-13.328-53.31h-19.991l-22.213 88.85h22.213l8.885-53.31zM1390.508 82.603h-24.434v24.434h24.434v-24.434zM1408.278 153.683v19.991h64.416v-15.549l-37.761-53.31h37.761v-19.991h-64.416v15.549l37.761 53.31h-37.761zM1510.456 180.338h-24.434v22.213h24.434v-22.213zM1508.234 82.603h-22.213v88.85h22.213v-88.85zM1550.438 155.905c4.443 11.106 11.106 17.77 22.213 17.77v-24.434c-13.328 0-22.213-8.885-22.213-26.655v-37.761h-22.213v88.85h22.213v-17.77zM1608.191 138.134c6.664 0 13.328-2.221 17.77-4.443v2.221c0 11.106-6.664 15.549-15.549 15.549s-13.328-2.221-19.991-4.443l-6.664 17.77c8.885 4.443 17.77 6.664 28.876 6.664s19.991-2.221 26.655-8.885c6.664-6.664 8.885-15.549 8.885-26.655v-53.31h-22.213v11.106c-4.443-6.664-11.106-11.106-22.213-11.106-13.328 0-24.434 8.885-24.434 26.655v0c0 19.991 11.106 28.876 28.876 28.876zM1601.527 109.258c0-6.664 4.443-11.106 11.106-11.106 8.885 0 15.549 4.443 15.549 13.328v6.664c-4.443 2.221-8.885 2.221-13.328 2.221-8.885 2.221-13.328-2.221-13.328-11.106v0zM1690.377 138.134c6.664 0 13.328-2.221 17.77-4.443v2.221c0 11.106-6.664 15.549-15.549 15.549s-13.328-2.221-19.991-4.443l-6.664 17.77c8.885 4.443 17.77 6.664 28.876 6.664s19.991-2.221 26.655-8.885c6.664-6.664 8.885-15.549 8.885-26.655v-53.31h-22.213v11.106c-4.443-6.664-11.106-11.106-22.213-11.106-13.328 0-24.434 8.885-24.434 26.655v0c0 19.991 13.328 28.876 28.876 28.876zM1683.714 109.258c0-6.664 4.443-11.106 11.106-11.106 8.885 0 15.549 4.443 15.549 13.328v6.664c-4.443 2.221-8.885 2.221-13.328 2.221-8.885 2.221-13.328-2.221-13.328-11.106v0zM1750.351 193.666h22.213v-22.213h17.77v-19.991h-17.77v-42.204c0-4.443 2.221-6.664 6.664-6.664s6.664 0 8.885 2.221v-17.77c-4.443-2.221-8.885-4.443-17.77-4.443-13.328 0-22.213 4.443-22.213 24.434v46.646h-8.885v19.991h8.885v19.991zM1828.095 160.347c4.443 6.664 11.106 13.328 22.213 13.328 17.77 0 33.319-13.328 33.319-44.425v-2.221c0-31.098-15.549-44.425-33.319-44.425-11.106 0-17.77 6.664-22.213 13.328v-11.106h-22.213v117.727h22.213v-42.204zM1828.095 127.028c0-15.549 6.664-24.434 17.77-24.434 8.885 0 15.549 8.885 15.549 24.434v2.221c0 15.549-6.664 24.434-15.549 24.434-11.106 0-17.77-11.106-17.77-26.655v0zM1923.61 138.134c6.664 0 13.328-2.221 17.77-4.443v2.221c0 11.106-6.664 15.549-15.549 15.549s-13.328-2.221-19.991-4.443l-6.664 17.77c8.885 4.443 17.77 6.664 28.876 6.664s19.991-2.221 26.655-8.885c6.664-6.664 8.885-15.549 8.885-26.655v-53.31h-22.213v11.106c-4.443-6.664-11.106-11.106-22.213-11.106-13.328 0-24.434 8.885-24.434 26.655v0c0 19.991 11.106 28.876 28.876 28.876zM1916.946 109.258c0-6.664 4.443-11.106 11.106-11.106 8.885 0 15.549 4.443 15.549 13.328v6.664c-4.443 2.221-8.885 2.221-13.328 2.221-8.885 2.221-13.328-2.221-13.328-11.106v0zM2003.575 160.347c4.443 6.664 11.106 13.328 22.213 13.328 15.549 0 24.434-11.106 24.434-28.876v-59.974h-22.213v53.31c0 11.106-4.443 15.549-11.106 15.549s-13.328-4.443-13.328-15.549v-53.31h-22.213v88.85h22.213v-13.328zM2092.425 138.134l22.213 33.319h26.655l-26.655-35.54 26.655-53.31h-26.655l-17.77 35.54-6.664-8.885v-26.655h-22.213v117.727h22.213v-62.195zM2176.833 82.603h-24.434v24.434h24.434v-24.434zM2227.922 173.675c13.328 0 19.991-4.443 28.876-11.106l-13.328-17.77c-4.443 4.443-8.885 8.885-15.549 8.885-11.106 0-17.77-11.106-17.77-24.434v0c0-15.549 6.664-24.434 17.77-24.434 6.664 0 11.106 2.221 15.549 8.885l11.106-15.549c-6.664-8.885-15.549-13.328-28.876-13.328-22.213 0-37.761 17.77-37.761 44.425v2.221c0 22.213 17.77 42.204 39.983 42.204zM2303.445 173.675c22.213 0 39.983-17.77 39.983-44.425v-2.221c0-26.655-17.77-44.425-39.983-44.425s-39.983 17.77-39.983 44.425v2.221c0 24.434 17.77 44.425 39.983 44.425zM2285.675 127.028c0-13.328 6.664-24.434 17.77-24.434s17.77 11.106 17.77 24.434v2.221c0 13.328-6.664 24.434-17.77 24.434s-17.77-11.106-17.77-26.655v0zM2381.189 160.347c4.443 6.664 11.106 13.328 22.213 13.328 8.885 0 17.77-4.443 19.991-13.328 6.664 6.664 13.328 13.328 24.434 13.328 15.549 0 24.434-11.106 24.434-28.876v-59.974h-22.213v53.31c0 11.106-4.443 15.549-11.106 15.549s-11.106-4.443-11.106-15.549v-53.31h-22.213v53.31c0 11.106-4.443 15.549-11.106 15.549s-11.106-4.443-11.106-15.549v-53.31h-22.213v88.85h22.213v-13.328zM2516.685 82.603h-24.434v24.434h24.434v-24.434zM2534.456 193.666h22.213v-22.213h17.77v-19.991h-17.77v-42.204c0-4.443 2.221-6.664 6.664-6.664s6.664 0 8.885 2.221v-17.77c-4.443-2.221-8.885-4.443-17.77-4.443-13.328 0-22.213 4.443-22.213 24.434v46.646h-8.885v19.991h8.885v19.991zM2612.2 155.905c4.443 11.106 11.106 17.77 22.213 17.77v-24.434c-13.328 0-22.213-8.885-22.213-26.655v-37.761h-22.213v88.85h22.213v-17.77z" />
<glyph unicode="&#xe90d;" glyph-name="search" horiz-adv-x="811" d="M640 226.133c59.733-106.667 132.267-230.4 132.267-230.4l-72.533-42.667c0 0-72.533 128-132.267 230.4-51.2-21.333-102.4-34.133-162.133-34.133-221.867 0-405.333 183.467-405.333 405.333s183.467 405.333 405.333 405.333c221.867 0 405.333-183.467 405.333-405.333 0-136.533-68.267-256-170.667-328.533zM405.333 874.667c-174.933 0-320-145.067-320-320s145.067-320 320-320c174.933 0 320 145.067 320 320s-145.067 320-320 320z" />
<glyph unicode="&#xe90e;" glyph-name="sigorta-basvurusu" horiz-adv-x="1161" d="M858.453 838.827l54.613 93.867c5.12 8.533 1.707 20.48-6.827 25.6s-20.48 1.707-27.307-6.827l-54.613-93.867c-90.453 46.080-187.733 68.267-285.013 68.267-213.333 0-423.253-109.227-539.307-305.493v0c39.253 64.853 109.227 100.693 179.2 100.693 34.133 0 69.973-8.533 102.4-27.307 97.28-54.613 131.413-177.493 75.093-274.773v0c39.253 64.853 109.227 100.693 179.2 100.693 25.6 0 52.907-5.12 76.8-15.36l-232.107-394.24c0 0 0 0 0 0l-44.373-75.093c-1.707-3.413-1.707-5.12-3.413-8.533-29.013-49.493-95.573-68.267-145.067-39.253-51.2 29.013-68.267 93.867-39.253 143.36 1.707 3.413 3.413 5.12 5.12 8.533l-34.133 18.773c-1.707-3.413-3.413-5.12-5.12-8.533-40.96-68.267-17.067-155.307 52.907-196.267 66.56-37.547 151.893-17.067 192.853 44.373v0l288.427 489.813c90.453-58.027 119.467-175.787 64.853-267.947v0c39.253 64.853 109.227 100.693 179.2 100.693 34.133 0 69.973-8.533 102.4-27.307 97.28-54.613 131.413-177.493 75.093-274.773v0c170.667 286.72 75.093 650.24-211.627 820.907zM1012.053 321.707c-35.84 20.48-76.8 30.72-117.76 30.72-42.667 0-81.92-10.24-117.76-30.72 0 18.773-3.413 39.253-8.533 58.027-17.067 61.44-56.32 110.933-110.933 141.653-35.84 20.48-76.8 30.72-119.467 30.72s-81.92-10.24-117.76-30.72c0 18.773-3.413 39.253-8.533 58.027-17.067 61.44-56.32 110.933-110.933 141.653-37.547 23.893-78.507 34.133-121.173 34.133-6.827 0-13.653 0-20.48-1.707 105.813 88.747 240.64 138.24 382.293 138.24 100.693 0 201.387-25.6 290.133-76.8 134.827-76.8 232.107-199.68 271.36-348.16 22.187-83.627 25.6-168.96 8.533-252.587-20.48 46.080-54.613 81.92-98.987 107.52z" />
<glyph unicode="&#xe90f;" glyph-name="sm-facebook" d="M611.902 462.985c7.493 0 12.488-7.493 12.488-12.488l-7.493-64.937c0-4.995-4.995-9.99-12.488-9.99h-72.429v-137.366h-89.912v137.366h-54.946c-7.493 0-12.488 4.995-12.488 12.488v64.937c0 7.493 4.995 12.488 12.488 12.488h54.946v62.439c0 72.429 44.956 112.39 112.39 112.39h54.946c7.493 0 12.488-4.995 12.488-12.488v-54.946c0-7.493-4.995-12.488-12.488-12.488h-34.966c-37.463 0-42.459-17.483-42.459-39.961v-54.946h79.922v-2.498z" />
<glyph unicode="&#xe910;" glyph-name="sm-google" d="M764.254 420.527h-39.961v-42.459c0-4.995-4.995-9.99-9.99-9.99h-32.468c-4.995 0-9.99 4.995-9.99 9.99v42.459h-39.961c-4.995 0-9.99 4.995-9.99 9.99v34.966c0 4.995 4.995 9.99 9.99 9.99h42.459v42.459c0 4.995 4.995 9.99 9.99 9.99h32.468c4.995 0 9.99-4.995 9.99-9.99v-42.459h39.961c4.995 0 9.99-4.995 9.99-9.99v-34.966c-2.498-4.995-7.493-9.99-12.488-9.99zM417.093 425.522v39.961c0 4.995 4.995 9.99 9.99 9.99h147.356c0 0 0-34.966 0-37.463-4.995-84.917-74.927-152.351-162.341-152.351-89.912 0-162.341 72.429-162.341 162.341s74.927 162.341 164.839 159.844c42.459 0 79.922-17.483 107.395-44.956 4.995-4.995 4.995-12.488 0-14.985l-29.971-27.473c-4.995-4.995-9.99-4.995-14.985 0-17.483 14.985-42.459 24.976-67.434 24.976-57.444 0-102.4-47.454-99.902-104.898 2.498-52.449 47.454-97.405 99.902-97.405 44.956 0 82.42 27.473 94.907 67.434h-79.922c-2.498 4.995-7.493 9.99-7.493 14.985z" />
<glyph unicode="&#xe911;" glyph-name="sm-instagram" d="M591.922 248.195h-162.341c-64.937 0-119.883 52.449-119.883 119.883v162.341c0 64.937 52.449 119.883 119.883 119.883h162.341c64.937 0 119.883-52.449 119.883-119.883v-162.341c0-67.434-52.449-119.883-119.883-119.883zM671.844 527.922c0 42.459-34.966 79.922-79.922 79.922h-162.341c-42.459 0-79.922-34.966-79.922-79.922v-162.341c0-42.459 34.966-79.922 79.922-79.922h162.341c42.459 0 79.922 34.966 79.922 79.922v162.341zM601.912 515.434c-12.488 0-22.478 9.99-22.478 22.478s9.99 22.478 22.478 22.478 22.478-9.99 22.478-22.478-9.99-22.478-22.478-22.478zM614.4 448c0-57.444-47.454-102.4-102.4-102.4-57.444 0-102.4 47.454-102.4 102.4 0 57.444 47.454 102.4 102.4 102.4 57.444 0 102.4-44.956 102.4-102.4zM512 510.439c-34.966 0-62.439-27.473-62.439-62.439s27.473-62.439 62.439-62.439 62.439 27.473 62.439 62.439-27.473 62.439-62.439 62.439z" />
<glyph unicode="&#xe912;" glyph-name="sm-twitter" d="M686.829 522.927c-2.498-2.498-4.995-7.493-4.995-12.488v0c0-29.971-4.995-59.941-17.483-87.415-12.488-29.971-27.473-57.444-47.454-79.922-22.478-24.976-49.951-44.956-79.922-57.444-32.468-14.985-69.932-22.478-107.395-22.478-44.956 0-87.415 12.488-127.376 32.468-2.498 0-2.498 2.498-2.498 7.493 0 2.498 2.498 4.995 7.493 4.995h9.99c34.966 0 67.434 9.99 94.907 27.473-34.966 4.995-62.439 29.971-72.429 62.439 0 2.498 2.498 7.493 4.995 4.995 4.995 0 9.99-2.498 14.985-2.498h2.498c-32.468 14.985-54.946 47.454-52.449 82.42 0 2.498 4.995 4.995 7.493 4.995 7.493-2.498 12.488-7.493 19.98-7.493-17.483 17.483-27.473 39.961-27.473 64.937 0 14.985 4.995 32.468 12.488 44.956 2.498 2.498 4.995 2.498 7.493 0 42.459-49.951 99.902-82.42 164.839-87.415v0h2.498v2.498c-2.498 9.99 0 22.478 2.498 32.468 7.493 29.971 29.971 54.946 59.941 62.439 9.99 2.498 19.98 4.995 29.971 4.995 22.478 0 44.956-7.493 59.941-22.478 2.498-2.498 4.995-2.498 7.493-2.498h2.498c14.985 4.995 29.971 9.99 44.956 17.483 4.995 2.498 7.493-2.498 7.493-4.995-4.995-14.985-12.488-27.473-24.976-37.463 9.99 2.498 19.98 4.995 29.971 9.99 4.995 2.498 7.493-2.498 4.995-7.493-7.493-9.99-19.98-22.478-34.966-34.966z" />
<glyph unicode="&#xe913;" glyph-name="sm-youtube" d="M636.878 285.659h-249.756c-49.951 0-87.415 39.961-87.415 87.415v124.878c0 47.454 39.961 87.415 87.415 87.415h249.756c49.951 0 87.415-39.961 87.415-87.415v-124.878c0-47.454-39.961-87.415-87.415-87.415zM569.444 438.010l-112.39 57.444c-2.498 2.498-7.493 0-7.493-4.995v-112.39c0-2.498 2.498-4.995 7.493-4.995l112.39 54.946c2.498 2.498 2.498 7.493 0 9.99z" />
<glyph unicode="&#xe914;" glyph-name="share" horiz-adv-x="827" d="M712.972-64c-9.57 0-14.355 0-23.925 0-95.701 14.355-167.477 100.486-153.121 200.972v9.57l-244.037 167.477-4.785-4.785c-33.495-23.925-71.776-38.28-110.056-38.28v0c-38.28 0-76.561 14.355-110.056 38.28-38.28 28.71-62.206 66.991-66.991 114.841s9.57 95.701 38.28 129.196c33.495 43.065 86.131 71.776 138.766 71.776 43.065 0 76.561-14.355 110.056-38.28l9.57-9.57 244.037 167.477v9.57c-14.355 62.206 9.57 124.411 57.421 162.692 33.495 28.71 76.561 43.065 114.841 43.065 52.636 0 105.271-23.925 138.766-62.206s47.85-81.346 43.065-129.196c-4.785-47.85-23.925-90.916-62.206-124.411-33.495-28.71-76.561-43.065-119.626-43.065-52.636 0-105.271 23.925-138.766 62.206l-4.785 9.57-224.897-162.692 4.785-9.57c9.57-33.495 9.57-76.561 0-110.056l-4.785-9.57 229.682-162.692 9.57 9.57c33.495 38.28 81.346 62.206 133.981 62.206 9.57 0 14.355 0 23.925 0 47.85-4.785 90.916-28.71 119.626-66.991s43.065-86.131 33.495-129.196c-19.14-90.916-90.916-157.907-181.832-157.907zM712.972 208.748c-52.636 0-95.701-43.065-95.701-95.701s43.065-95.701 95.701-95.701c52.636 0 95.701 43.065 95.701 95.701s-43.065 95.701-95.701 95.701zM177.047 543.701c-52.636 0-95.701-43.065-95.701-95.701s43.065-95.701 95.701-95.701 95.701 43.065 95.701 95.701-43.065 95.701-95.701 95.701zM698.617 873.869c-47.85-4.785-81.346-47.85-81.346-95.701 0-52.636 43.065-95.701 95.701-95.701s95.701 43.065 95.701 95.701-43.065 95.701-95.701 95.701h-14.355z" />
<glyph unicode="&#xe915;" glyph-name="left-arrow" horiz-adv-x="563" d="M563.2 7.68l-71.68-71.68-424.96 440.32-66.56 71.68 71.68 71.68 419.84 440.32 71.68-71.68-419.84-440.32 419.84-440.32z" />
<glyph unicode="&#xe916;" glyph-name="kanallar-atm" horiz-adv-x="896" d="M0-64v1024h896v-1024h-896zM859.429 923.429h-822.857v-950.857h822.857v950.857zM585.143 777.143v-329.143h-438.857v365.714h438.857v-36.571zM548.571 777.143h-365.714v-292.571h365.714v292.571zM173.714 374.857h54.857c14.629 0 27.429-12.8 27.429-27.429s-12.8-27.429-27.429-27.429h-54.857c-14.629 0-27.429 12.8-27.429 27.429s12.8 27.429 27.429 27.429zM173.714 265.143h54.857c14.629 0 27.429-12.8 27.429-27.429s-12.8-27.429-27.429-27.429h-54.857c-14.629 0-27.429 12.8-27.429 27.429s12.8 27.429 27.429 27.429zM173.714 155.429h54.857c14.629 0 27.429-12.8 27.429-27.429s-12.8-27.429-27.429-27.429h-54.857c-14.629 0-27.429 12.8-27.429 27.429s12.8 27.429 27.429 27.429zM338.286 374.857h54.857c14.629 0 27.429-12.8 27.429-27.429s-12.8-27.429-27.429-27.429h-54.857c-14.629 0-27.429 12.8-27.429 27.429s12.8 27.429 27.429 27.429zM338.286 265.143h54.857c14.629 0 27.429-12.8 27.429-27.429s-12.8-27.429-27.429-27.429h-54.857c-14.629 0-27.429 12.8-27.429 27.429s12.8 27.429 27.429 27.429zM338.286 155.429h54.857c14.629 0 27.429-12.8 27.429-27.429s-12.8-27.429-27.429-27.429h-54.857c-14.629 0-27.429 12.8-27.429 27.429s12.8 27.429 27.429 27.429zM502.857 374.857h54.857c14.629 0 27.429-12.8 27.429-27.429s-12.8-27.429-27.429-27.429h-54.857c-14.629 0-27.429 12.8-27.429 27.429s12.8 27.429 27.429 27.429zM502.857 265.143h54.857c14.629 0 27.429-12.8 27.429-27.429s-12.8-27.429-27.429-27.429h-54.857c-14.629 0-27.429 12.8-27.429 27.429s12.8 27.429 27.429 27.429zM502.857 155.429h54.857c14.629 0 27.429-12.8 27.429-27.429s-12.8-27.429-27.429-27.429h-54.857c-14.629 0-27.429 12.8-27.429 27.429s12.8 27.429 27.429 27.429zM722.286 813.714c34.743 0 64-29.257 64-64v-237.714c0-34.743-29.257-64-64-64s-64 29.257-64 64v237.714c0 34.743 29.257 64 64 64zM694.857 512c0-14.629 12.8-27.429 27.429-27.429s27.429 12.8 27.429 27.429v237.714c0 14.629-12.8 27.429-27.429 27.429s-27.429-12.8-27.429-27.429v-237.714z" />
<glyph unicode="&#xe917;" glyph-name="kanallar-cagri-merkezi" horiz-adv-x="883" d="M776.828 200.828c-58.262 0-105.931 47.669-105.931 105.931v194.207c0 52.966 38.841 95.338 88.276 104.166 0 0 0 1.766 0 1.766 0 174.786-143.007 317.793-317.793 317.793s-317.793-143.007-317.793-317.793c0 0 0-1.766 0-1.766 49.434-8.828 88.276-51.2 88.276-104.166v-194.207c0-58.262-47.669-105.931-105.931-105.931s-105.931 47.669-105.931 105.931v194.207c0 52.966 38.841 95.338 88.276 104.166 0 0 0 1.766 0 1.766 0 194.207 158.897 353.103 353.103 353.103s353.103-158.897 353.103-353.103c0 0 0-1.766 0-1.766 49.434-8.828 88.276-51.2 88.276-104.166v-194.207c0-58.262-47.669-105.931-105.931-105.931zM97.103 571.586c-33.545 0-61.793-28.248-61.793-61.793v-211.862c0-33.545 28.248-61.793 61.793-61.793h17.655c33.545 0 61.793 28.248 61.793 61.793v211.862c0 33.545-28.248 61.793-61.793 61.793h-17.655zM847.448 509.793c0 33.545-28.248 61.793-61.793 61.793h-17.655c-33.545 0-61.793-28.248-61.793-61.793v-211.862c0-33.545 28.248-61.793 61.793-61.793h17.655c33.545 0 61.793 28.248 61.793 61.793v211.862zM441.379 77.241c30.014 0 56.497-19.421 65.324-45.903 95.338 19.421 174.786 82.979 218.924 169.49h38.841c-45.903-104.166-139.476-181.848-254.234-204.8-3.531-33.545-33.545-60.028-68.855-60.028-38.841 0-70.621 31.779-70.621 70.621s31.779 70.621 70.621 70.621zM441.379-28.69c19.421 0 35.31 15.89 35.31 35.31s-15.89 35.31-35.31 35.31c-19.421 0-35.31-15.89-35.31-35.31s15.89-35.31 35.31-35.31z" />
<glyph unicode="&#xe918;" glyph-name="kanallar-internet-subesi" d="M912.291 103.564h-113.571l31.651-65.164c1.862-5.585 5.585-5.585 5.585-11.171-1.862-5.585-3.724-9.309-9.309-11.171l-141.498-78.196c-3.724-1.862-7.447-1.862-11.171-1.862-7.447 0-11.171 3.724-14.895 9.309l-55.855 113.571-91.229-50.269c-5.585-3.724-13.033-3.724-18.618 1.862-5.585 3.724-9.309 11.171-9.309 18.618v76.335h-372.364c-61.44 0-111.709 50.269-111.709 111.709v631.156c0 61.44 50.269 111.709 111.709 111.709h800.582c61.44 0 111.709-50.269 111.709-111.709v-633.018c0-61.44-50.269-111.709-111.709-111.709zM521.309 66.327l76.335 29.789c-5.585-3.724 18.618 16.756 29.789-3.724l55.855-113.571 107.985 59.578-55.855 111.709c-5.585 9.309 0 22.342 9.309 27.927l74.473 40.96-297.891 219.695v-372.364zM986.764 848.291c0 40.96-33.513 74.473-74.473 74.473h-800.582c-40.96 0-74.473-33.513-74.473-74.473v-93.091h949.527v93.091zM986.764 717.964h-949.527v-502.691c0-40.96 33.513-74.473 74.473-74.473h372.364v333.265c0 7.447 3.724 14.895 11.171 18.618 5.585 3.724 13.033 3.724 20.48-1.862l351.884-255.069c5.585-3.724 9.309-11.171 9.309-18.618s-3.724-13.033-11.171-16.756l-91.229-50.269 5.585-11.171h132.189c40.96 0 74.473 33.513 74.473 74.473v504.553zM716.8 866.909c14.895 0 27.927-13.033 27.927-27.927s-13.033-27.927-27.927-27.927c-14.895 0-27.927 13.033-27.927 27.927s13.033 27.927 27.927 27.927zM809.891 866.909c14.895 0 27.927-13.033 27.927-27.927s-13.033-27.927-27.927-27.927-27.927 13.033-27.927 27.927c0 14.895 13.033 27.927 27.927 27.927zM902.982 866.909c14.895 0 27.927-13.033 27.927-27.927s-13.033-27.927-27.927-27.927c-14.895 0-27.927 13.033-27.927 27.927s13.033 27.927 27.927 27.927z" />
<glyph unicode="&#xe919;" glyph-name="kanallar-mobil" horiz-adv-x="772" d="M740.431 14.769v305.625c-1.575 9.452-6.302 18.905-12.603 26.782l-267.815 267.815c-18.905 18.905-48.837 18.905-66.166 0-18.905-18.905-18.905-48.837 0-66.166l189.046-189.046-15.754-11.028c-92.948-44.111-160.689-133.908-171.717-239.458h-89.797l149.662-149.662-22.055-23.631-173.292 173.292h-102.4c-29.932 0-53.563 20.48-61.44 47.262h6.302c-39.385 0-70.892 31.508-70.892 70.892 0 17.329 6.302 31.508 15.754 44.111-26.782 9.452-47.262 36.234-47.262 66.166 0 22.055 11.028 42.535 26.782 55.138-15.754 12.603-26.782 33.083-26.782 55.138 0 31.508 18.905 56.714 47.262 66.166-9.452 12.603-15.754 26.782-15.754 44.111 0 36.234 28.357 66.166 63.015 69.317v269.391c0 34.658 28.357 63.015 63.015 63.015h393.846c34.658 0 63.015-28.357 63.015-63.015v-393.846l133.908-133.908c11.028-11.028 18.905-25.206 22.055-39.385h1.575v-315.077h-31.508zM102.4 188.062h63.015c22.055 0 39.385 17.329 39.385 39.385s-17.329 39.385-39.385 39.385h-63.015c-22.055 0-39.385-17.329-39.385-39.385s17.329-39.385 39.385-39.385zM70.892 298.338h141.785c22.055 0 39.385 17.329 39.385 39.385s-17.329 39.385-39.385 39.385h-141.785c-22.055 0-39.385-17.329-39.385-39.385s17.329-39.385 39.385-39.385zM31.508 448c0-22.055 17.329-39.385 39.385-39.385h141.785c22.055 0 39.385 17.329 39.385 39.385s-17.329 39.385-39.385 39.385h-141.785c-22.055 0-39.385-17.329-39.385-39.385zM102.4 597.662c-22.055 0-39.385-17.329-39.385-39.385s17.329-39.385 39.385-39.385h63.015c22.055 0 39.385 17.329 39.385 39.385s-17.329 39.385-39.385 39.385h-63.015zM582.892 896.985c0 17.329-14.178 31.508-31.508 31.508h-393.846c-17.329 0-31.508-14.178-31.508-31.508v-267.815h39.385c39.385 0 70.892-31.508 70.892-70.892 0-15.754-4.726-28.357-12.603-40.96 34.658-4.726 59.865-34.658 59.865-69.317 0-22.055-11.028-42.535-26.782-55.138 15.754-12.603 26.782-33.083 26.782-55.138 0-34.658-26.782-64.591-59.865-69.317 7.877-11.028 12.603-25.206 12.603-40.96 0-39.385-31.508-70.892-70.892-70.892h-34.658c4.726-9.452 15.754-15.754 26.782-15.754h211.102c18.905 96.098 78.769 178.018 162.265 225.28l-162.265 160.689c-29.932 29.932-29.932 80.345 0 110.277s80.345 29.932 110.277 0l103.975-102.4v362.338zM409.6 865.477h-110.277c-9.452 0-15.754 6.302-15.754 15.754s6.302 15.754 15.754 15.754h110.277c9.452 0 15.754-6.302 15.754-15.754s-6.302-15.754-15.754-15.754z" />
<glyph unicode="&#xe91a;" glyph-name="kanallar-subelerimiz" horiz-adv-x="1040" d="M1007.746-64h-1007.746v130.032h65.016v97.524h81.27v373.841h-113.778v211.302h130.032l357.587 211.302 357.587-211.302h130.032v-211.302h-113.778v-373.841h81.27v-97.524h65.016v-130.032h-32.508zM520.127 927.492l-292.571-178.794h585.143l-292.571 178.794zM975.238 569.905v146.286h-910.222v-146.286h910.222zM178.794 537.397v-373.841h65.016v373.841h-65.016zM276.317 537.397v-373.841h178.794v373.841h-178.794zM487.619 537.397v-373.841h65.016v373.841h-65.016zM585.143 537.397v-373.841h178.794v373.841h-178.794zM796.444 537.397v-373.841h65.016v373.841h-65.016zM942.73 131.048h-845.206v-65.016h845.206v65.016zM1007.746 33.524h-975.238v-65.016h975.238v65.016z" />
<glyph unicode="&#xe91b;" glyph-name="kanallar-web-sitesi" horiz-adv-x="1224" d="M1090.783-64h-957.217c-73.461 0-133.565 60.104-133.565 133.565v756.87c0 73.461 60.104 133.565 133.565 133.565h957.217c73.461 0 133.565-60.104 133.565-133.565v-756.87c0-73.461-60.104-133.565-133.565-133.565zM1179.826 826.435c0 48.974-40.070 89.043-89.043 89.043h-957.217c-48.974 0-89.043-40.070-89.043-89.043v-111.304h1135.304v111.304zM1179.826 670.609h-1135.304v-601.043c0-48.974 40.070-89.043 89.043-89.043h957.217c48.974 0 89.043 40.070 89.043 89.043v601.043zM1024 247.652h-333.913c-13.357 0-22.261 8.904-22.261 22.261s8.904 22.261 22.261 22.261h333.913c13.357 0 22.261-8.904 22.261-22.261s-8.904-22.261-22.261-22.261zM690.087 425.739h267.13c13.357 0 22.261-8.904 22.261-22.261s-8.904-22.261-22.261-22.261h-267.13c-13.357 0-22.261 8.904-22.261 22.261s8.904 22.261 22.261 22.261zM1001.739 492.522h-311.652c-13.357 0-22.261 8.904-22.261 22.261s8.904 22.261 22.261 22.261h311.652c13.357 0 22.261-8.904 22.261-22.261s-8.904-22.261-22.261-22.261zM534.261 114.087h-311.652c-24.487 0-44.522 20.035-44.522 44.522v333.913c0 24.487 20.035 44.522 44.522 44.522h311.652c24.487 0 44.522-20.035 44.522-44.522v-333.913c0-24.487-20.035-44.522-44.522-44.522zM534.261 492.522h-311.652v-333.913h311.652v333.913zM690.087 158.609h178.087c13.357 0 22.261-8.904 22.261-22.261s-8.904-22.261-22.261-22.261h-178.087c-13.357 0-22.261 8.904-22.261 22.261s8.904 22.261 22.261 22.261zM857.043 848.696c17.809 0 33.391-15.583 33.391-33.391s-15.583-33.391-33.391-33.391c-17.809 0-33.391 15.583-33.391 33.391s15.583 33.391 33.391 33.391zM968.348 848.696c17.809 0 33.391-15.583 33.391-33.391s-15.583-33.391-33.391-33.391-33.391 15.583-33.391 33.391 15.583 33.391 33.391 33.391zM1079.652 848.696c17.809 0 33.391-15.583 33.391-33.391s-15.583-33.391-33.391-33.391-33.391 15.583-33.391 33.391 15.583 33.391 33.391 33.391z" />
<glyph unicode="&#xe91c;" horiz-adv-x="488" d="M14.629 389.486l185.295-160.914c0 0 4.876 0 4.876-4.876 0 0 4.876 0 4.876 0s4.876 0 4.876 0c0 0 4.876 0 4.876 4.876 0 0 0 4.876 4.876 4.876 0 0 0 4.876 0 4.876v107.276c0 9.752 0 14.629-4.876 19.505s-4.876 14.629-9.752 19.505l-185.295 156.038c0 0-4.876 0-4.876 4.876 0 0-4.876 0-4.876 0s-4.876 0-4.876 0c0 0-4.876 0-4.876-4.876 0 0 0-4.876-4.876-4.876 0 0 0-4.876 0-4.876v-107.276c0-9.752 0-14.629 4.876-19.505 0-4.876 4.876-9.752 9.752-14.629zM209.676 126.171l-180.419 156.038c0 0 0 0-4.876 4.876v0c0 0 0 0 0 0s0 0 0 0 0 0 0 4.876c0 0 0 0 0 4.876 0 0 0 0 0 0s0 0 0 4.876v0c0 0 0 0 0 4.876 0 0 0 0 0 0s0 0 0 4.876v0c0 0 0 0 0 0s0 0 0 0v0 0c0 4.876 0 9.752 4.876 9.752v0c0 0 0 0 0 0s-4.876-4.876-9.752-14.629v0c-14.629-9.752-19.505-19.505-19.505-34.133 0 0 0-4.876 0-4.876s0-4.876 0-4.876c0 0 0-121.905 0-121.905 0-9.752 0-14.629 4.876-19.505s4.876-14.629 9.752-19.505l185.295-160.914c0 0 4.876 0 4.876-4.876 0 0 4.876 0 4.876 0s4.876 0 4.876 0c0 0 4.876 0 4.876 4.876 0 0 0 4.876 4.876 4.876 0 0 0 4.876 0 4.876v136.533c0 9.752 0 14.629-4.876 19.505 0 9.752-4.876 14.629-9.752 19.505zM14.629 628.419l180.419-156.038c0 0 0 0 4.876-4.876 0 0 4.876-4.876 4.876-4.876 4.876-4.876 4.876-9.752 4.876-14.629s0-9.752-4.876-14.629c0 0 4.876 4.876 9.752 14.629v0c4.876 9.752 4.876 19.505 9.752 34.133 0 0 0 4.876 0 4.876s0 4.876 0 4.876v63.39c0 29.257 0 63.39 0 63.39 0 9.752 0 14.629-4.876 19.505 0 4.876-4.876 9.752-9.752 14.629l-185.295 160.914c0 0-4.876 0-4.876 4.876 0 0-4.876 0-4.876 0s-4.876 0-4.876 0c0 0-4.876 0-4.876-4.876 0 0 0-4.876-4.876-4.876 0 0 0-4.876 0-4.876v-136.533c0-9.752 0-14.629 4.876-19.505 0-9.752 4.876-14.629 9.752-19.505zM477.867 462.629c4.876 4.876 9.752 14.629 9.752 24.381v316.952c0 0 0 4.876 0 4.876 0 4.876-4.876 4.876-4.876 4.876s-4.876 0-4.876 4.876c0 0-4.876 0-4.876 0s-4.876 0-4.876 0c0 0-4.876 0-4.876-4.876l-185.295-160.914c-4.876-4.876-9.752-9.752-9.752-14.629-4.876-9.752-4.876-14.629-4.876-24.381v-136.533c0 0 0-4.876 0-4.876s0-4.876 4.876-4.876c0 0 4.876 0 4.876-4.876 0 0 4.876 0 4.876 0s4.876 0 4.876 0c0 0 0 0 0 0s0 0 4.876 0l29.257 24.381 112.152 92.648c0 0 4.876 0 4.876 4.876 0 0 4.876 0 4.876 0s4.876 0 4.876 0c0 0 4.876 0 4.876-4.876 0 0 0-4.876 4.876-4.876 0 0 0-4.876 0-4.876v-24.381c0-9.752 0-14.629-4.876-19.505-4.876 0-9.752-4.876-14.629-9.752l-117.029-97.524-34.133-29.257-4.876-4.876c-4.876-4.876-9.752-9.752-9.752-19.505-4.876-4.876-4.876-14.629-4.876-19.505v-107.276c0 0 0-4.876 0-4.876s0-4.876 4.876-4.876c0 0 4.876 0 4.876-4.876 0 0 4.876 0 4.876 0s4.876 0 4.876 0c0 0 0 0 0 0s0 0 4.876 0l29.257 24.381 112.152 97.524c0 0 4.876 0 4.876 4.876 0 0 4.876 0 4.876 0s4.876 0 4.876 0c0 0 4.876 0 4.876-4.876 0 0 0-4.876 4.876-4.876 0 0 0-4.876 0-4.876v-43.886c0-9.752 0-14.629-4.876-19.505s-4.876-14.629-9.752-19.505l-156.038-131.657c-4.876-4.876-9.752-9.752-9.752-19.505-4.876-4.876-4.876-14.629-4.876-19.505v-136.533c0 0 0-4.876 0-4.876s0-4.876 4.876-4.876c0 0 4.876 0 4.876-4.876 0 0 4.876 0 4.876 0s4.876 0 4.876 0c0 0 4.876 0 4.876 4.876l185.295 160.914c4.876 4.876 9.752 9.752 9.752 19.505s0 14.629 0 24.381v297.448c0 0 0 4.876 0 4.876s0 4.876-4.876 4.876c0 0-4.876 0-4.876 4.876 0 0-4.876 0-4.876 0s-4.876 0-4.876 0c0 0-4.876 0-4.876 0 9.752 0 9.752 4.876 14.629 9.752zM224.305 881.981l-87.771 78.019c0 0 0 0 0 0s0 0 0 0 0 0 0 0 0 0 0 0 0 0-4.876-4.876c0 0 0 0 0-4.876v-53.638c0 0 0 0 0-4.876 0 0 0 0 0 0l29.257-24.381v-53.638l-14.629 14.629c0 0 0 0 0 0s0 0 0 0 0 0 0 0 0 0 0 0 0 0-4.876-4.876c0 0 0 0 0-4.876v-53.638c0 0 0 0 0-4.876 0 0 0 0 0 0l63.39-53.638c0 0 0 0 0 0s0 0 0 0 0 0 0 0 0 0 0 0 0 0 4.876 0c0 0 0 0 0 4.876v58.514c0 0 0 0 0 4.876 0 0 0 0 0 0l-14.629 9.752v48.762l19.505-14.629c0 0 0 0 0 0s0 0 0 0 0 0 0 0 0 0 0 0 0 0 4.876 0c0 0 0 0 0 4.876l4.876 58.514c0 0 0 0 0 0s0 0 0 0zM268.19 696.686c0 0 0 0 0 0s0 0 0 0 0 0 0 0c4.876 0 4.876 0 4.876 0l87.771 73.143c0 0 0 0 0 0s0 0 0 4.876v53.638c0 0 0 4.876 0 4.876s0 0-4.876 0c0 0 0 0 0 0s0 0 0 0 0 0 0 0 0 0 0 0l-48.762-39.010v48.762l53.638 48.762c0 0 0 0 0 0s0 0 0 4.876v58.514c0 0 0 4.876 0 4.876s0 0-4.876 0c0 0 0 0 0 0s0 0 0 0 0 0 0 0 0 0 0 0l-92.648-78.019c0 0 0 0 0 0s0 0 0-4.876v-175.543c0 0 0 0 4.876-4.876-4.876 4.876-4.876 0 0 0z" />
<glyph unicode="&#xe91d;" horiz-adv-x="488" d="M204.8 433.371c9.752 9.752 4.876 24.381 0 29.257s-4.876 9.752-9.752 9.752l-48.762-39.010 29.257-24.381 29.257 24.381z" />
<glyph unicode="&#xe91e;" horiz-adv-x="488" d="M58.514 355.352v0l-39.010-34.133c-4.876-4.876-4.876-9.752-4.876-9.752v0 0c0 0 0 0 0 0s0 0 0 0 0 0 0-4.876c0 0 0 0 0 0s0-4.876 0-4.876v0c0 0 0 0 0-4.876 0 0 0 0 0 0s0 0 0-4.876c0 0 0 0 0-4.876 0 0 0 0 0 0s0 0 0 0 4.876-4.876 4.876-4.876l58.514 48.762-19.505 24.381z" />
<glyph unicode="&#xe91f;" horiz-adv-x="488" d="M282.819 228.571v-97.524l34.133 29.257v97.524h-4.876l-29.257-29.257c0 0 0 0 0 0z" />
<glyph unicode="&#xe920;" horiz-adv-x="488" d="M316.952 496.762v0l-34.133-29.257c0 0 0 0-4.876 0v0-78.019l34.133 29.257v78.019z" />
<glyph unicode="&#xe921;" glyph-name="arrow-up" horiz-adv-x="1920" d="M1900.8-44.8c-25.6-25.6-64-25.6-89.6 0l-851.2 851.2-851.2-851.2c-25.6-25.6-64-25.6-89.6 0s-25.6 64 0 89.6l896 896c25.6 25.6 64 25.6 89.6 0l896-896c25.6-25.6 25.6-64 0-89.6z" />
<glyph unicode="&#xe922;" glyph-name="404" d="M512.6 960c-282.2 0-512-229.6-512-512s229.6-512 512-512c282.4 0 512 229.6 512 512s-229.6 512-512 512zM512.6-36.4c-267 0-484.2 217.4-484.2 484.4s217.2 484.4 484.4 484.4 484.2-217.4 484.2-484.4c0-267-217.2-484.4-484.4-484.4zM489.6 435.6c0.4-9.6 0.8-19.8 1.6-30.4 0.6-10.6 1.4-22.4 2-35.4h22.6c0.6 13 1.4 24.8 2 35.4s1.2 20.8 1.6 30.4c0.4 9.6 0.6 19 0.8 28.4 0.2 9.2 0.4 19.2 0.4 29.6v198.4h-32.4v-198.8c0-10.4 0.2-20.2 0.4-29.6 0.4-9 0.6-18.4 1-28zM526 250c-3 2.8-6.4 5.2-10.2 7-4 1.8-8.2 2.6-12.6 2.6-4.6 0-8.8-0.8-12.6-2.6s-7.2-4-10-7c-2.8-3-5.2-6.4-6.8-10.2-1.6-4-2.4-8-2.4-12.4 0-9 3-16.6 9.2-22.8s13.8-9.2 22.8-9.2c4.4 0 8.6 0.8 12.6 2.4s7.4 3.8 10.2 6.8c2.8 2.8 5.2 6.2 7 10s2.6 8 2.6 12.8c0 4.4-0.8 8.6-2.6 12.4-2 3.8-4.2 7.2-7.2 10.2z" />
<glyph unicode="&#xe923;" glyph-name="fixed" d="M512 960c279.893 0 512-232.107 512-512s-232.107-512-512-512c-279.893 0-512 232.107-512 512s232.107 512 512 512z" />
<glyph unicode="&#xe924;" glyph-name="down" horiz-adv-x="1339" d="M669.538-64l669.538 1024h-1339.077l669.538-1024z" />
<glyph unicode="&#xe925;" glyph-name="up" horiz-adv-x="1339" d="M669.538 960l-669.538-1024h1339.077l-669.538 1024z" />
<glyph unicode="&#xe926;" glyph-name="date-picker" d="M914.2 813.8h-73.2v54.8c0.2 50.2-41 91.4-91.2 91.4h-36.6c-50.2 0-91.4-41.2-91.4-91.4v-54.8h-219.6v54.8c0 50.2-41.2 91.4-91.4 91.4h-36.6c-50.2 0-91.4-41.2-91.4-91.4v-54.8h-73c-40 0-73.2-33.2-73.2-73.2v-731.4c0-40 33.2-73.2 73.2-73.2h804.6c40 0 73.2 33.2 73.2 73.2v731.4c-0.2 40-33.4 73.2-73.4 73.2zM274.2 9.2h-164.4v164.6h164.6v-164.6zM274.2 210.2h-164.4v182.8h164.6v-182.8zM274.2 429.8h-164.4v164.6h164.6v-164.6zM256 704v164.6c0 9.8 8.6 18.2 18.2 18.2h36.6c9.8 0 18.2-8.6 18.2-18.2v-164.6c0-9.8-8.6-18.2-18.2-18.2h-36.6c-9.6 0-18.2 8.4-18.2 18.2zM493.8 9.2h-182.8v164.6h182.8v-164.6zM493.8 210.2h-182.8v182.8h182.8v-182.8zM493.8 429.8h-182.8v164.6h182.8v-164.6zM713.2 9.2h-182.8v164.6h182.8v-164.6zM713.2 210.2h-182.8v182.8h182.8v-182.8zM713.2 429.8h-182.8v164.6h182.8v-164.6zM694.8 704v164.6c0 9.8 8.6 18.2 18.2 18.2h36.6c9.8 0 18.2-8.6 18.2-18.2v-164.6c0-9.8-8.6-18.2-18.2-18.2h-36.6c-9.6 0-18.2 8.4-18.2 18.2zM914.2 9.2h-164.6v164.6h164.6v-164.6zM914.2 210.2h-164.6v182.8h164.6v-182.8zM914.2 429.8h-164.6v164.6h164.6v-164.6z" />
<glyph unicode="&#xe927;" glyph-name="right-arrow" d="M230.4 888.4l71.6 71.6 425-440.4 66.6-71.6-71.6-71.6-420-440.4-71.6 71.6 419.8 440.4-419.8 440.4z" />
<glyph unicode="&#xe928;" glyph-name="refresh" horiz-adv-x="1026" d="M950.48 448.013c0-240.487-196.183-436.166-437.283-436.166-162.001 0-308.985 89.497-384.526 228.444h240.003v75.864h-354.89v-366.637h76.051v209.487c94.165-136.967 251.433-223.006 423.362-223.006 283.062 0 513.337 229.67 513.265 513.858l-75.982-1.845zM513.204 884.159c161.369 0 305.243-86.47 381.651-224.192h-244.522v-75.854h354.897v366.637h-76.048v-204.546c-94.709 132.303-246.861 213.796-415.977 213.796-281.069 0-511.265-228.144-513.202-508.551l76.055-0.517c1.637 238.886 197.748 433.228 437.148 433.228z" />
<glyph unicode="&#xe929;" glyph-name="doc" horiz-adv-x="1103" d="M664.8 954.2c-3.8 3.8-8.8 5.8-14 5.8h-510.8c-11 0-20-9-20-20v-983c0-11 9-19.8 20-19.8h739.2c11 0 20 9 20 19.8v753.6zM852.6-17.4h-687v931.8h471.2l215.8-217.8v-714zM584.4 584.6v-44h37l-44.6-156.6-52.4 201h-37.4l-58.8-198-44 197.4h-59.2l81.2-307h37.8l58.2 204.4 51.6-204.4h40.4l97 307.2z" />
<glyph unicode="&#xe92a;" glyph-name="xls" horiz-adv-x="1103" d="M667.2 953.6c-3.8 3.8-8.8 5.8-14 5.8h-510.8c-11 0-20-9-20-20v-983c0-11 9-19.8 20-19.8h739.2c11 0 20 9 20 19.8v753.6zM855-18h-687v931.8h471.2l215.8-217.8v-714zM607.2 280.4h56.6l-121.6 183.2 96.4 153.2h-54.4l-71.8-108.2-71.2 107.2h-60.8l102.6-151.6-122.8-185h144.2l0.2 41.4h-52.2l61.6 97.8z" />
<glyph unicode="&#xe92b;" glyph-name="pdf" horiz-adv-x="1103" d="M667.2 953.6c-3.8 3.8-8.8 5.8-14 5.8h-510.8c-11 0-20-9-20-20v-983c0-11 9-20 20-20h739.2c11 0 20 9 20 20v753.6zM855-17.8h-687v931.6h471.2l215.8-217.8v-713.8zM680.2 415.8c-14.6 4-46.8 0.8-85.6-6.4-31.6 28.2-65 68.8-88.2 113.8 7.4 23.2 12.2 42.4 13.2 54.6 1.2 17.2 0.2 33-3.6 45-6 18.8-20.4 29-39.4 22.8-22.8-7.6-27.4-51.8-16.4-85.8 4.4-13.2 9.6-26.2 15.6-38.8-16.4-48.2-43-112.2-66.8-160.8-20.2-7.2-36.6-14-46.2-19.4-38.4-22-59.4-53.6-42.2-77.4 21.6-30.2 61.8-11.2 94 46 4.6 8.2 9.6 17.6 14.8 27.8 44.6 15 106.2 31.8 157 42.2 8.4-7 16.8-13 24.6-18.2 25.8-16.6 62.6-20.4 81.4-9.6 10.6 6.2 17.8 19 17.6 31.8-0.8 15-11.6 27.4-29.8 32.4zM388.8 321.8c-13.4-23.4-26-37.2-36.2-42-5.4-2.6-7.6-2-9 0-1 1.4-0.6 4.8 3.2 10.6 5.6 8.4 16 17.4 30 25.4 3.2 1.8 7.2 3.8 12 6 0 0 0 0.2 0.2 0.2l-0.2-0.2c0.2 0 0.2 0 0 0zM485.4 618.4c1.8 0.6 1.6 0.8 3.2-4.4 2.6-7.8 3.4-20.4 2.4-34.2-0.2-4-1.2-9.2-2.4-15h-0.2c-0.4 1.2-0.8 2.6-1.2 3.8-6.8 20.6-3.8 49-1.8 49.8zM446.2 372.2c0-0.2-0.2-0.4-0.2-0.4v0.4h0.2c17 36.6 34.2 78 47.6 114.8 0 0 0 0.2-0.2 0.2h0.2v-0.2c19.2-31.6 42.4-60.4 65.8-84v-0.8c-37.8-8.2-78.2-19-113.4-30zM677.8 375.8c-8.6-5-34.2-2.4-51.6 8.8-0.6 0.4-1.2 0.8-1.8 1.2l0.2 0.2c22.2 3.4 39.6 4.6 48 2.2 6.8-1.8 8.6-3.8 8.6-6.2 0-2-1.6-5.2-3.4-6.2z" />
<glyph unicode="&#xe92c;" glyph-name="web" d="M664.8 954.2c-3.8 3.8-8.8 5.8-14 5.8h-510.8c-11 0-20-9-20-20v-983c0-11 9-19.8 20-19.8h739.2c11 0 20 9 20 19.8v753.6zM852.6-17.4h-687v931.8h471.2l215.8-217.8v-714zM509.6 659c-140.8 0-255-114.2-255-255s114.2-255 255-255 255 114.2 255 255-114.2 255-255 255zM509.6 196c-16.8 0-38.8 27.4-54.2 74.4 17.4 1.8 35.6 2.8 54.2 2.8 18.8 0 37-1 54.2-2.8-15.4-47-37.4-74.4-54.2-74.4v0zM563.8 537.6c-17.4-1.8-35.6-2.8-54.2-2.8-18.8 0-36.8 1-54.2 2.8 15.6 47 37.4 74.4 54.2 74.4v0c16.8 0 38.8-27.4 54.2-74.4zM570.6 603c30.4-9.4 58-25.6 80.8-46.8-11.6-4-24.4-7.6-38-10.6-5.2-1.2-10.4-2.2-15.8-3.2-7.4 23.6-16.6 44.2-27 60.6zM436 420.8c1 31.2 4.8 59.4 10.2 84.2 20.2-2.4 41.4-3.6 63.2-3.6s43 1.2 63.2 3.6c5.6-24.6 9.2-53 10.2-84.2 0.4 0-146.8 0-146.8 0zM583.2 387.2c-1-31.2-4.8-59.4-10.4-84.2-20.2 2.4-41.4 3.6-63.2 3.6s-43-1.2-63.2-3.6c-5.6 24.6-9.2 53-10.4 84.2h147.2zM421.6 542.4c-6 1-11.8 2.2-17.4 3.4-13 3-25 6.4-36.2 10.2 22.8 21.2 50.2 37.4 80.8 46.8-10.6-16.2-19.8-36.8-27.2-60.4zM396.8 513.2c5.4-1.2 10.8-2.2 16.4-3.4-6-27.2-9.6-57.4-10.6-89.2h-100.2c3.2 40.6 18.2 78 41.4 108.6 16-6.2 33.8-11.6 53-16zM402.6 387.2c1-31.8 4.6-62 10.6-89.2-5-1-9.8-1.8-14.6-3-19.8-4.4-38.2-10-54.8-16.6-23.2 30.6-38.2 68-41.4 108.6h100.2v0.2zM405.8 262.4c5.2 1.2 10.4 2.2 15.8 3.2 7.4-23.6 16.6-44 27-60.4-30.4 9.4-58 25.6-80.8 46.8 11.8 3.8 24.4 7.4 38 10.4zM597.6 265.6c5.2-1 10.4-2 15.4-3 13.8-3 26.6-6.6 38.4-10.8-22.8-21.2-50.2-37.4-80.8-46.8 10.4 16.4 19.6 37 27 60.6zM620.2 295.2c-4.6 1-9.2 2-14 2.8 6 27.2 9.6 57.4 10.6 89.2h100.2c-3.2-40.6-18.2-78-41.4-108.6-16.8 6.6-35.4 12.2-55.4 16.6zM616.6 420.8c-1 31.8-4.6 62-10.6 89.2 4.8 1 9.8 1.8 14.4 3 20 4.4 38.4 10 55 16.6 23.2-30.6 38.2-68 41.4-108.6h-100.2v-0.2z" />
<glyph unicode="&#xe92d;" glyph-name="kanallar-trader" d="M583 744.2v33.2c0 12.6-8.4 21-21 21h-407c-12.6 0-21-8.4-21-21v-658.6c0-12.6 8.4-21 21-21h407c12.6 0 21 8.4 21 21v50.2h-35.4v-35.6h-377.2v628.6h377.2v-18h35.4zM339.2 60.6c-12.6 0-21-8.4-21-21s8.4-21 21-21h42c12.6 0 21 8.4 21 21s-8.4 21-21 21h-42zM438 834.8c12.6 0 21 8.4 21 21s-8.4 21-21 21h-27.4c-12.6 0-21-8.4-21-21s8.4-21 21-21h27.4zM673.4 744.2v194c0 12.6-8.4 21-21 21h-586.8c-12.6 0-21-8.4-21-21v-981.2c0-12.6 8.4-21 21-21h586.8c12.6 0 21 8.4 21 21v212h-36.4v-196.6h-556.4v951.6h556.6v-179.8h36.2zM330.8 834.8c12.6 0 21 8.4 21 21s-8.4 21-21 21h-48.4c-12.6 0-21-8.4-21-21s10.6-21 21-21h48.4zM691.8 546.8c-4.4-5.6-3.6-13.8 2.2-18.2 2.4-2 5.2-2.8 8-2.8 3.8 0 7.6 1.6 10.2 5 21.2 26.8 10.6 53.8 2 75.6-8.8 22.2-13.2 35.6-2 50 4.4 5.6 3.6 13.8-2.2 18.2-5.6 4.4-13.8 3.6-18.2-2.2-21.2-26.8-10.6-53.8-2-75.6 9-22.2 13.4-35.6 2-50zM625 546.8c-4.4-5.6-3.6-13.8 2.2-18.2 2.4-2 5.2-2.8 8-2.8 3.8 0 7.6 1.6 10.2 5 21.2 26.8 10.6 53.8 2 75.6-8.8 22.2-13.2 35.6-2 50 4.4 5.6 3.6 13.8-2.2 18.2-5.6 4.4-13.8 3.6-18.2-2.2-21.2-26.8-10.6-53.8-2-75.6 9-22.2 13.4-35.6 2-50zM558.4 546.8c-4.4-5.6-3.6-13.8 2.2-18.2 2.4-2 5.2-2.8 8-2.8 3.8 0 7.6 1.6 10.2 5 21.2 26.8 10.6 53.8 2 75.6-8.8 22.2-13.2 35.6-2 50 4.4 5.6 3.6 13.8-2.2 18.2-5.6 4.4-13.8 3.6-18.2-2.2-21.2-26.8-10.6-53.8-2-75.6 8.8-22.2 13.2-35.6 2-50zM851.8 361c10.2-23.8 33.8-40.4 61.2-40.4 36.6 0 66.6 29.8 66.6 66.6 0 36.6-29.8 66.6-66.6 66.6-12.2 0-23.4-3.2-33.2-9 1.6 11.4 2.4 23 2.4 35 0 7.2-5.8 13-13 13h-497.6c-7.2 0-13-5.8-13-13 0-110.4 68.8-196.4 165.6-230.6h-165.2c-7.2 0-13-5.8-13-13s5.8-13 13-13h561.6c7.2 0 13 5.8 13 13s-5.8 13-13 13h-204c58.2 20.6 106.2 59.8 135.2 111.8zM913 427.8c22.4 0 40.6-18.2 40.6-40.6s-18.2-40.6-40.6-40.6c-22.4 0-40.6 18.2-40.6 40.6s18.2 40.6 40.6 40.6zM620.4 259c-125.8 0-228.8 73.4-235.6 197.4h471c-6.8-124-109.8-197.4-235.4-197.4z" />
<glyph unicode="&#xe92e;" glyph-name="kanallar-phone" d="M358.4 454c-32.2 0-58.2-26-58.2-58.2s26-58.2 58.2-58.2 58.2 26 58.2 58.2c0 32-26 58.2-58.2 58.2zM358.4 364c-17.6 0-31.8 14.4-31.8 31.8 0 17.6 14.2 32 31.8 32s31.8-14.4 31.8-32c0-17.6-14.2-31.8-31.8-31.8zM510.6 454c-32.2 0-58.2-26-58.2-58.2s26-58.2 58.2-58.2c32.2 0 58.2 26 58.2 58.2 0 32-26 58.2-58.2 58.2zM510.6 364c-17.6 0-31.8 14.4-31.8 31.8 0 17.6 14.2 32 31.8 32s31.8-14.4 31.8-32c0.2-17.6-14.2-31.8-31.8-31.8zM663 454c-32.2 0-58.2-26-58.2-58.2s26-58.2 58.2-58.2c32.2 0 58.2 26 58.2 58.2 0 32-26 58.2-58.2 58.2zM663 364c-17.6 0-31.8 14.4-31.8 31.8 0 17.6 14.2 32 31.8 32s31.8-14.4 31.8-32c0-17.6-14.2-31.8-31.8-31.8zM358.4 285.4c-32.2 0-58.2-26-58.2-58.2s26-58.2 58.2-58.2 58.2 26 58.2 58.2c0 32-26 58.2-58.2 58.2zM358.4 195.2c-17.6 0-31.8 14.4-31.8 31.8 0 17.6 14.2 31.8 31.8 31.8s31.8-14.4 31.8-31.8c0-17.4-14.2-31.8-31.8-31.8zM510.6 285.4c-32.2 0-58.2-26-58.2-58.2s26-58.2 58.2-58.2c32.2 0 58.2 26 58.2 58.2 0 32-26 58.2-58.2 58.2zM510.6 195.2c-17.6 0-31.8 14.4-31.8 31.8 0 17.6 14.2 31.8 31.8 31.8s31.8-14.4 31.8-31.8c0.2-17.4-14.2-31.8-31.8-31.8zM663 285.4c-32.2 0-58.2-26-58.2-58.2s26-58.2 58.2-58.2c32.2 0 58.2 26 58.2 58.2 0 32-26 58.2-58.2 58.2zM663 195.2c-17.6 0-31.8 14.4-31.8 31.8 0 17.6 14.2 31.8 31.8 31.8s31.8-14.4 31.8-31.8c0-17.4-14.2-31.8-31.8-31.8zM358.4 116.8c-32.2 0-58.2-26-58.2-58.2s26-58.2 58.2-58.2 58.2 26 58.2 58.2c0 32-26 58.2-58.2 58.2zM358.4 26.6c-17.6 0-31.8 14.4-31.8 32s14.2 31.8 31.8 31.8 31.8-14.4 31.8-31.8c0-17.6-14.2-32-31.8-32zM510.6 116.8c-32.2 0-58.2-26-58.2-58.2s26-58.2 58.2-58.2c32.2 0 58.2 26 58.2 58.2 0 32-26 58.2-58.2 58.2zM510.6 26.6c-17.6 0-31.8 14.4-31.8 32s14.2 31.8 31.8 31.8 31.8-14.4 31.8-31.8c0.2-17.6-14.2-32-31.8-32zM663 116.8c-32.2 0-58.2-26-58.2-58.2s26-58.2 58.2-58.2c32.2 0 58.2 26 58.2 58.2 0 32-26 58.2-58.2 58.2zM663 26.6c-17.6 0-31.8 14.4-31.8 32s14.2 31.8 31.8 31.8 31.8-14.4 31.8-31.8c0-17.6-14.2-32-31.8-32zM1022.8 675.4l-0.6 6.6-4.4 4.8c-117 128.2-298 204.2-500.8 208.8-193 4.2-374-60.4-496.4-177.6l-13.6-13.6-1-6.4c-2.8-18.4-4.2-37-4.8-55-1.2-64.6 10.6-127.4 35.4-187 10.2-24.8 52.8-47.4 74.8-39.8 70.8 24.8 121.2 49.4 200.2 97 2.8 1.6 5.6 4 8.6 6.8 8.4 8.2 29.8 33.8 25.8 54.4l-16.2 81c-2.6 12.6 17 29.6 40.2 32.6 45.8 6.2 94.4 9 144.4 8.4 50.2-1.6 98.8-6.4 144.8-14.6 15.4-2.8 29.2-10.8 35.6-21 2.2-3.4 4.4-8.4 3-13.8l-19.6-79.8c-5.8-23 19.8-55.6 32.2-63.2 64.8-39.6 137.6-76.8 193.6-104.6 19.2-9.4 51.6 6.2 66.6 20.6 5 4.8 8.8 9.8 11.2 15 27.4 58.4 42 120.8 43.4 185.2 0.2 17.8-0.6 35.8-2.4 55.2zM995.4 622c-1.4-60.2-23.8-128.2-49.4-182.8 0 0-0.6-1.2-2.8-3.4-7.8-7.6-20.6-13.2-22.6-14-56.4 28-129.6 65.4-194.2 104.8-4.4 3.2-14 17.8-15 20.8l20 81.2c3.8 15 1 31.2-8.2 45.4-12.8 20-35.8 34.2-63 39.2-48.6 8.6-100.2 14-153.8 15.6-53.4 0.8-88.4 6-136.8-0.6-47-6.2-82.6-45.4-75-81l20.8-75.2c-0.6-3.6-7.6-14.4-16.2-23.2-77.8-47-144.6-79.8-211-103.6-7.2 0.2-24.6 12.4-27.2 19-23.2 55.6-30.8 119-29.6 179 0.4 14.6 1.6 29.6 3.6 44.8l3.8 3.8c117 112 291.2 174 477.2 170h4.2c189.4-4.2 361.4-75.2 473.6-194.8 1.4-16 1.8-30.8 1.6-45z" />
<glyph unicode="&#xe92f;" glyph-name="kanallar-ziraat-tablet" d="M913.2 960h-802.4c-12.4 0-22.2-10-22.2-22.2v-979.4c0-12.4 10-22.2 22.2-22.2h802.4c12.4 0 22.2 10 22.2 22.2v979.4c0 12.2-9.8 22.2-22.2 22.2zM900.8-28.2h-776.6v952.4h776.6v-952.4zM198.8 112.2h626.2c12.4 0 22.2 10 22.2 22.2v696.8c0 12.4-10 22.2-22.2 22.2h-626.2c-12.4 0-22.2-10-22.2-22.2v-696.6c0-12.4 10-22.4 22.2-22.4zM212.4 818.8h600v-670.8h-600v670.8zM562.2 59.8h-111.4c-12.4 0-27.2-5.6-27.2-17.8 0-12.4 15-17.4 27.2-17.4h111.4c12.4 0 20.6 5 20.6 17.4 0 12.2-8.2 17.8-20.6 17.8z" />
<glyph unicode="&#xe930;" glyph-name="kanallar-sms" d="M700.8 726.6v212c0 12.6-8.4 21-21 21h-586.8c-12.6 0-21-8.4-21-21v-981.2c0-12.6 8.4-21 21-21h586.8c12.6 0 21 8.4 21 21v212h-36.4v-196.6h-556.4v951.4h556.6v-197.8h36.2zM610.4 726.6v51.2c0 12.6-8.4 21-21 21h-407c-12.6 0-21-8.4-21-21v-658.6c0-12.6 8.4-21 21-21h407c12.6 0 21 8.4 21 21v50.2h-35.4v-35.6h-377.2v628.6h377.2v-35.8h35.4zM366.6 61c-12.6 0-21-8.4-21-21s8.4-21 21-21h42c12.6 0 21 8.4 21 21s-8.4 21-21 21h-42zM358.2 835.2c12.6 0 21 8.4 21 21s-8.4 21-21 21h-48.4c-12.6 0-21-8.4-21-21s10.6-21 21-21h48.4zM465.4 835.2c12.6 0 21 8.4 21 21s-8.4 21-21 21h-27.4c-12.6 0-21-8.4-21-21s8.4-21 21-21h27.4zM903.4 654.2c-0.2 0-0.4 0-0.6 0-1.2 0-2.4 0.2-3.6 0.2h-490.8c-1.2 0-2.4 0-3.6-0.2-0.2 0-0.4 0-0.6 0-26.2-2.2-46.8-24-46.8-50.6v-311c0-26.6 20.6-48.6 46.8-50.8 0.2 0 0.4 0 0.6 0 1.2 0 2.4-0.2 3.6-0.2h490.8c1.2 0 2.4 0 3.6 0.2 0.2 0 0.4 0 0.6 0 26.2 2.2 46.6 24 46.6 50.8v310.8c0.2 26.8-20.4 48.6-46.6 50.8zM758.4 448.2l164.4 140.8v-282l-164.4 141.2zM899.2 627c6.6 0 12.8-2.8 17.2-7.6l-184.4-157.6c-2.2-0.8-4.2-2-5.8-3.8-0.8-0.8-1.4-1.8-2-2.8l-75-64-258 228.2c4.4 4.8 10.6 7.6 17.2 7.6h490.8zM384.8 588.4l157.4-139.2-157.4-141.4v280.6zM408.4 269c-6.6 0-12.8 2.8-17.2 7.6l171.6 154.4 77.4-68.4c2.6-2.4 5.8-3.4 9.2-3.4 3.2 0 6.6 1.2 9.2 3.4l78.8 67.6 179.2-153.4c-4.4-4.8-10.6-7.6-17.2-7.6h-491z" />
<glyph unicode="&#xe931;" glyph-name="kanallar-phone-zry" d="M985.4 266.8c-79.6 36.2-141.8 56.2-246.6 79.6-3.6 0.8-7.8 1.2-12.8 1.2-13.8 0-52.2-4.4-65.4-25l-51.6-81.2c-8-12.6-38.2-11.2-60.2 5-43.4 31.6-86.8 68.4-128.4 109.4-41 41.8-78 85.2-110 129-10.8 14.8-15.8 32.6-13.2 46.4 0.8 4.6 3 10.6 8.6 14l80.8 51.4c23.4 14.8 28.2 62.8 23.8 79.2-22.6 85.6-54 175.4-78.8 244.2-8.6 23.4-48.4 36.4-72.8 36.4-8 0-15.4-1.2-21.6-3.6-70-27.6-132.4-68.2-185.6-121.4-14.4-14.6-28.4-30.2-42.4-48.2l-4.8-6-0.2-7.6c-4.8-202.2 86.4-412.2 253.4-579.2 159.2-159.2 363.6-250.4 561.2-250.4l22.4 0.4 6 4.6c17.2 13.4 33.4 27.6 48.4 42.4 53 53.2 93.8 115.8 120.8 185.8 11.4 29-6.2 82.6-31 93.6zM989.8 185.8c-25.4-65.4-70-125-119.4-174.6-12.2-12-25.2-23.8-39-34.8h-6.4c-189.2 0-385.8 88.2-539.4 241.6l-3.4 3.4c-156 156.2-243.8 354.6-241.6 545.8 11.6 14.4 23 27.2 34.8 39 49.6 49.6 123.4 88.8 189 114.2 0 0 1.6 0.6 5.2 0.6 12.8 0 28-5.6 30.4-6.4 25-69.2 56.4-159.6 79-244.8 1.2-6.4-2.6-26.4-4-29.6l-82.4-52.2c-15.4-9.4-26-25.4-29.6-44.8-5.4-27.2 2.6-57.6 21.6-83.8 34-46.6 73.2-92.6 117-137 44.4-43.6 69.6-76.2 115.8-109.8 44.6-32.6 106.2-28.4 128.4 7.8l43 80c3.6 2.6 17.8 6 32.4 6.4 103.4-23 186-49.4 261.2-83 5.6-6 10.4-30.2 7.4-38z" />
<glyph unicode="&#xe932;" glyph-name="kanallar-email" d="M984.2 617.6l-458.4 335.4c-8.2 7-20.2 7-28.4 0l-457.6-335.4c-5-4.2-7.8-10.2-7.8-16.6v-581.6c0-6.4 0.8-12.6 2-18.6-0.4-3.4 0-7 1.2-10.2 8-21.2 24.4-37.6 44.4-46.2 0.2 0 0.2-0.2 0.4-0.2 0.8-0.4 1.4-0.6 2.2-1 6-2.4 12.4-4 19-4.8 0.2 0 0.4 0 0.6 0 0.6 0 1.4-0.2 2-0.2s1.2-0.2 2-0.2c0.6 0 1 0 1.6 0 1.2 0 2.4 0 3.6 0h796.2c45 0 84.2 27.8 84.2 72.8v590.2c0.4 6.4-2.4 12.4-7.2 16.6zM674.8 285.6l282 251.6v-503.8l-282 252.2zM511.4 913.2l445.4-322.4v-7.4c-3-0.8-5.8-2.4-8.2-4.6l-301.2-268.6-123.2 110.2c-8.4 7.4-20.8 7.4-29.2 0l-123.2-110.2-301.2 268.6c-1.2 1-2.4 2-3.8 2.8v9.2l444.6 322.4zM66.6 531.4l276.6-246.8-276.6-247.4v494.2zM111.4-27.2c-0.6 0-1.4 0-2 0-14.4 0.8-29.8 9.2-37.6 21.4l298.6 264.4c0.6-0.2 1.2-0.4 1.8-0.4 6 0 12 2.4 16.4 7.4 3.6 4 5.4 9 5.6 14l115.4 102.2 118.6-105.8c0.8-3 2.4-5.8 4.6-8.4 3.4-3.8 7.8-6.2 12.6-7l302.8-269.8c-10-10.8-27-18.2-40.6-18.2h-796.2z" />
<glyph unicode="&#xe933;" glyph-name="kanallar-yatirim" d="M397.6 530.2h-90v-53.4h90v53.4zM397.6 403h-90v-53.4h90v53.4zM397.6 275.8h-90v-53.4h90v53.4zM397.6 148.6h-90v-53.4h90v53.4zM524 751.6v204.4l-507.4-259.6v-764.4h998.6v623.8l-491.2 195.8zM180-30.4h-127v700.8l127 63.2v-764zM488.6-30.4h-272.2v782l272.2 135.2v-917.2zM833.6-30.4h-308.6v737l308.4-123v-614zM978.8-30.4h-108.8v599.4l108.8-43.4v-556zM724.8 403h-91v-53.4h91v53.4zM724.8 275.8h-91v-53.4h91v53.4zM724.8 148.6h-91v-53.4h91v53.4z" />
<glyph unicode="&#xe934;" glyph-name="error" d="M512 960c-282.224 0-512-229.776-512-512s229.776-512 512-512 512 229.776 512 512-229.776 512-512 512zM512-14.048c-254.751 0-462.048 207.297-462.048 462.048s207.297 462.048 462.048 462.048 462.048-207.297 462.048-462.048-207.297-462.048-462.048-462.048zM681.796 659.125l-167.249-174.076-163.055 174.076-32.447-34.154 162.871-173.884-172.997-180.059 33.286-34.154 172.341 179.376 168.016-179.376 32.454 34.154-167.84 179.185 167.904 174.758z" />
<glyph unicode="&#xe935;" glyph-name="ok" d="M512-64c-282.224 0-512 229.776-512 512s229.776 512 512 512 512-229.776 512-512-229.776-512-512-512zM512 910.049c-254.751 0-462.049-207.298-462.049-462.049s207.298-462.049 462.049-462.049 462.049 207.298 462.049 462.049-207.298 462.049-462.049 462.049zM836.513 625.963l-35.654 34.343-364.038-355.68-213.674 205.826-35.66-34.343 249.588-240.416 35.652 34.344-0.253 0.242z" />
<glyph unicode="&#xe936;" glyph-name="link" d="M667.95 468c-9.188 19.091-21.697 36.986-37.529 52.817l-45.619 45.619c-75.485 75.485-197.7 75.434-273.112 0.022l-255.13-255.13c-75.435-75.435-75.401-197.688 0.022-273.112l45.619-45.619c75.485-75.486 197.7-75.434 273.112-0.022l250.936 250.936c-34.918-9.469-79.193-10.846-130.039 10.603l-3.694 1.38-190.060-190.060c-35.197-35.197-92.173-35.201-127.396 0.022l-45.619 45.619c-35.198 35.198-35.207 92.212-0.022 127.396l255.13 255.13c35.197 35.197 92.173 35.201 127.396-0.022l45.619-45.619c10.284-10.284 17.563-22.429 21.84-35.349 35.018 1.861 56.366 23.209 56.366 23.209l32.181 32.181zM356.27 427.486c9.164-18.899 21.591-36.614 37.28-52.303l45.619-45.619c75.485-75.485 197.7-75.434 273.112-0.022l255.13 255.13c75.435 75.435 75.402 197.688-0.022 273.112l-45.619 45.619c-75.485 75.485-197.7 75.434-273.112 0.022l-248.295-248.295c48.41 12.941 96.93 0.838 131.469-14.246l189.684 189.684c35.197 35.197 92.173 35.201 127.396-0.022l45.619-45.619c35.198-35.198 35.207-92.212 0.022-127.396l-255.13-255.13c-35.197-35.197-92.173-35.201-127.396 0.022l-45.619 45.619c-10.36 10.36-17.671 22.609-21.934 35.635-19.128-0.264-39.553-7.54-59.044-27.030l-29.16-29.16z" />
<glyph unicode="&#xe937;" glyph-name="tick" d="M1003.2 949.6c-15.4 12.6-58.6 3.4-72-12l-562.2-851.4-278.6 294.6c-14 14.6-60 17.4-74 3.4-14.6-14-22-48-8-62.6l336.4-369.8c6.6-7.4 16.6-11.4 26-11.4h1.4c10.6 0.6 20 5.4 26.6 13.4l618.4 933.2c13.2 15.4 2 50-14 62.6z" />
<glyph unicode="&#xe938;" glyph-name="check" horiz-adv-x="1020" d="M862.829 960l-494.232-680.783-211.707 215.474-156.886-159.599 392.208-399.090 627.461 864.274z" />
<glyph unicode="&#xe939;" glyph-name="konut" d="M816.241 444.764h-344.359v-230.574h344.359v230.574zM781.465 248.966h-274.808v161.023h274.808v-161.023zM906.304 167.749v329.416h48.971v103.953l-161.245 83.458v106.773h15.181v34.776h-137.541v-34.776h15.181v-51.297l-177.647 91.948-446.106-230.882v-103.953h48.971v-329.416h-112.069v-103.749h34.776v68.974h169.089v-68.974h200.672v68.974h579.061v-68.974h34.775v103.749h-112.069zM920.499 531.941h-280.445l-0.205 3.923c-0.407 8.219-1.629 16.216-3.497 23.959h284.147v-27.881zM721.627 791.349h37.627v-88.773l-37.627 19.476v69.297zM509.204 792.843l383.005-198.245h-269.681c-22.651 39.293-64.999 65.528-113.325 65.528s-90.708-26.235-113.394-65.528h-269.646l383.040 198.245zM605.141 534.097h-191.91c2.582 50.823 44.455 91.253 95.974 91.253 51.449 0 93.357-40.43 95.937-91.253zM97.874 531.941v27.881h284.114c-1.834-7.743-3.092-15.739-3.498-23.959l-0.203-3.923h-280.412zM369.761 98.776h-131.121v311.213h131.121v-311.213zM871.528 167.749h-466.992v277.015h-200.672v-277.015h-57.020v329.416h724.684v-329.416zM317.904 260.666h34.776v-34.776h-34.776v34.776z" />
<glyph unicode="&#xe93a;" glyph-name="gayrimenkul" horiz-adv-x="1031" d="M912.271 42.056v814.377h29.296v37.735h-117.774v65.832h-177.343v-65.832h-381.826v-37.735h29.295v-135.664h-175.556v-678.713h-118.363v-106.056h37.735v68.321h955.164v-68.321h37.735v106.056h-118.363zM684.184 922.265h101.873v-28.097h-101.873v28.097zM331.654 856.433h542.882v-814.377h-310.283v678.713h-232.6v135.664zM156.098 683.034h370.421v-640.978h-35.744v101.412h-298.968v-101.412h-35.709v640.978zM453.039 42.056h-223.498v63.678h223.498v-63.678zM357.817 833.916h37.735v-37.735h-37.735v37.735zM433.287 833.916h37.735v-37.735h-37.735v37.735zM659.696 833.916h37.735v-37.735h-37.735v37.735zM584.226 833.916h37.735v-37.735h-37.735v37.735zM508.757 833.916h37.735v-37.735h-37.735v37.735zM735.166 833.916h37.735v-37.735h-37.735v37.735zM810.636 833.916h37.735v-37.735h-37.735v37.735zM810.636 777.314h37.735v-37.735h-37.735v37.735zM659.696 777.314h37.735v-37.735h-37.735v37.735zM508.757 777.314h37.735v-37.735h-37.735v37.735zM433.287 777.314h37.735v-37.735h-37.735v37.735zM357.817 777.314h37.735v-37.735h-37.735v37.735zM584.226 777.314h37.735v-37.735h-37.735v37.735zM735.166 777.314h37.735v-37.735h-37.735v37.735zM584.226 720.712h37.735v-37.735h-37.735v37.735zM810.636 720.712h37.735v-37.735h-37.735v37.735zM735.166 720.712h37.735v-37.735h-37.735v37.735zM659.696 720.712h37.735v-37.735h-37.735v37.735zM810.636 664.11h37.735v-37.735h-37.735v37.735zM735.166 664.11h37.735v-37.735h-37.735v37.735zM659.696 664.11h37.735v-37.735h-37.735v37.735zM584.226 664.11h37.735v-37.735h-37.735v37.735zM735.166 607.507h37.735v-37.735h-37.735v37.735zM810.636 607.507h37.735v-37.735h-37.735v37.735zM659.696 607.507h37.735v-37.735h-37.735v37.735zM584.226 607.507h37.735v-37.735h-37.735v37.735zM659.696 550.905h37.735v-37.735h-37.735v37.735zM735.166 550.905h37.735v-37.735h-37.735v37.735zM584.226 550.905h37.735v-37.735h-37.735v37.735zM810.636 550.905h37.735v-37.735h-37.735v37.735zM810.636 494.303h37.735v-37.735h-37.735v37.735zM735.166 494.303h37.735v-37.735h-37.735v37.735zM584.226 494.303h37.735v-37.735h-37.735v37.735zM659.696 494.303h37.735v-37.735h-37.735v37.735zM810.636 437.7h37.735v-37.735h-37.735v37.735zM584.226 437.7h37.735v-37.735h-37.735v37.735zM735.166 437.7h37.735v-37.735h-37.735v37.735zM659.696 437.7h37.735v-37.735h-37.735v37.735zM735.166 381.098h37.735v-37.735h-37.735v37.735zM584.226 381.098h37.735v-37.735h-37.735v37.735zM659.696 381.098h37.735v-37.735h-37.735v37.735zM810.636 381.098h37.735v-37.735h-37.735v37.735zM735.166 324.496h37.735v-37.735h-37.735v37.735zM810.636 324.496h37.735v-37.735h-37.735v37.735zM584.226 324.496h37.735v-37.735h-37.735v37.735zM659.696 324.496h37.735v-37.735h-37.735v37.735zM584.226 267.893h37.735v-37.735h-37.735v37.735zM659.696 267.893h37.735v-37.735h-37.735v37.735zM810.636 267.893h37.735v-37.735h-37.735v37.735zM735.166 267.893h37.735v-37.735h-37.735v37.735zM810.636 211.291h37.735v-37.735h-37.735v37.735zM659.696 211.291h37.735v-37.735h-37.735v37.735zM584.226 211.291h37.735v-37.735h-37.735v37.735zM735.166 211.291h37.735v-37.735h-37.735v37.735zM584.226 154.689h37.735v-37.735h-37.735v37.735zM735.166 154.689h37.735v-37.735h-37.735v37.735zM810.636 154.689h37.735v-37.735h-37.735v37.735zM659.696 154.689h37.735v-37.735h-37.735v37.735zM659.696 98.086h37.735v-37.735h-37.735v37.735zM810.636 98.086h37.735v-37.735h-37.735v37.735zM735.166 98.086h37.735v-37.735h-37.735v37.735zM584.226 98.086h37.735v-37.735h-37.735v37.735zM451.713 659.504h37.735v-37.735h-37.735v37.735zM279.363 659.504h37.735v-37.735h-37.735v37.735zM193.17 659.504h37.735v-37.735h-37.735v37.735zM365.519 659.504h37.735v-37.735h-37.735v37.735zM279.363 602.902h37.735v-37.735h-37.735v37.735zM365.519 602.902h37.735v-37.735h-37.735v37.735zM451.713 602.902h37.735v-37.735h-37.735v37.735zM193.17 602.902h37.735v-37.735h-37.735v37.735zM365.519 546.299h37.735v-37.735h-37.735v37.735zM279.363 546.299h37.735v-37.735h-37.735v37.735zM451.713 546.299h37.735v-37.735h-37.735v37.735zM193.17 546.299h37.735v-37.735h-37.735v37.735zM279.363 489.697h37.735v-37.735h-37.735v37.735zM365.519 489.697h37.735v-37.735h-37.735v37.735zM451.713 489.697h37.735v-37.735h-37.735v37.735zM193.17 489.697h37.735v-37.735h-37.735v37.735zM193.17 433.095h37.735v-37.735h-37.735v37.735zM279.363 433.095h37.735v-37.735h-37.735v37.735zM365.519 433.095h37.735v-37.735h-37.735v37.735zM451.713 433.095h37.735v-37.735h-37.735v37.735zM279.363 376.492h37.735v-37.735h-37.735v37.735zM365.519 376.492h37.735v-37.735h-37.735v37.735zM193.17 376.492h37.735v-37.735h-37.735v37.735zM451.713 376.492h37.735v-37.735h-37.735v37.735zM279.363 319.89h37.735v-37.735h-37.735v37.735zM365.519 319.89h37.735v-37.735h-37.735v37.735zM193.17 319.89h37.735v-37.735h-37.735v37.735zM451.713 319.89h37.735v-37.735h-37.735v37.735zM365.519 263.288h37.735v-37.735h-37.735v37.735zM279.363 263.288h37.735v-37.735h-37.735v37.735zM193.17 263.288h37.735v-37.735h-37.735v37.735zM451.713 263.288h37.735v-37.735h-37.735v37.735zM365.519 206.685h37.735v-37.735h-37.735v37.735zM193.17 206.685h37.735v-37.735h-37.735v37.735zM451.713 206.685h37.735v-37.735h-37.735v37.735zM279.363 206.685h37.735v-37.735h-37.735v37.735z" />
<glyph unicode="&#xe93b;" glyph-name="arsa" d="M263.789 229.204c0 69.284-56.347 125.631-125.631 125.631s-125.67-56.347-125.67-125.631 56.385-125.67 125.67-125.67 125.631 56.385 125.631 125.67zM53.006 229.204c0 46.928 38.183 85.113 85.152 85.113 46.928 0 85.113-38.185 85.113-85.113 0-46.967-38.185-85.151-85.113-85.151-46.969 0-85.152 38.185-85.152 85.151zM893.446 52.45h-289.96l-6.41 201.405 143.873 131.328c4.313-0.79 8.626-1.582 13.019-2.018 5.302-0.474 10.683-0.752 15.985-0.752 86.42 0 157.722 64.933 165.872 151.075 7.243 76.051-36.916 144.543-104.856 171.016 3.957 61.211-15.273 120.723-54.566 168.247-40.875 49.461-98.565 80.087-162.469 86.14-7.638 0.713-15.352 1.108-22.95 1.108-85.905 0-165.755-47.405-208.093-120.804-0.555 0.041-1.108 0.079-1.663 0.158-6.211 0.594-12.502 0.871-18.715 0.871-101.653 0-185.576-76.367-195.191-177.625-1.307-13.967-1.187-27.816 0.434-41.469-33.831-20.733-56.939-56.503-60.816-97.457-3.246-34.149 7.004-67.585 28.886-94.055 21.88-26.511 52.783-42.893 87.011-46.136 4.115-0.397 8.15-0.594 12.186-0.594 12.504 0 24.771 1.819 36.523 5.302 15.867-20.735 36.442-37.234 59.789-48.551l8.902-84.4 126.541-36.918-5.263-165.872h-289.92c-64.22 0-116.452-52.23-116.452-116.45h40.518c0 41.864 34.070 75.931 75.934 75.931h721.852c41.866 0 75.934-34.068 75.934-75.931h40.518c0 64.22-52.23 116.45-116.452 116.45zM595.414 307.155l-2.058 64.339c33.041 2.611 64.023 14.917 89.704 35.296 4.352-2.692 8.942-4.986 13.533-7.243l-101.179-92.392zM287.49 440.896c-14.759-10.999-33-17.488-52.469-17.488-2.769 0-5.539 0.158-8.349 0.395-48.47 4.629-84.003 47.642-79.374 96.073 3.6 38.422 31.418 68.612 66.872 77.238-6.135 19.35-8.547 40.162-6.491 61.649 7.638 80.601 75.457 140.943 154.833 140.943 4.907 0 9.893-0.237 14.878-0.713 9.773-0.91 19.192-2.848 28.292-5.46 29.676 74.706 102.562 125.947 185.301 125.947 6.29 0 12.662-0.316 19.111-0.91 109.843-10.448 190.406-107.945 179.959-217.787-0.869-9.021-2.492-17.727-4.471-26.315 67.465-8.507 116.411-69.007 109.922-137.145-6.211-65.407-61.173-114.394-125.552-114.394-3.995 0-8.071 0.199-12.147 0.594-30.822 2.929-57.968 16.698-78.069 37.196-23.345-30.152-59.708-49.264-99.793-49.264-3.995 0-8.031 0.158-12.107 0.555-19.271 1.86-37.076 8.031-52.706 17.37-21.604-39.807-63.746-66.158-110.99-66.158-3.957 0-7.992 0.197-12.028 0.594-48.037 4.589-87.171 35.492-104.621 77.078zM377.668 286.539l-4.155 39.133c4.866-0.91 9.735-1.74 14.718-2.214 5.304-0.476 10.644-0.752 15.908-0.752 23.306 0 45.782 4.945 66.436 13.928l-2.453-76.487-90.453 26.392zM511.924 362.552c5.974 5.065 11.752 10.405 17.016 16.341 7.755-2.492 15.709-4.194 23.819-5.539l10.209-320.904h-60.895l9.852 310.102zM644.203 731.689h40.518c0 60.105-48.906 109.011-109.011 109.011v-40.518c37.747 0 68.492-30.705 68.492-68.492zM425.942 593.831v40.518c-44.793 0-81.274-36.444-81.274-81.274h40.518c0 22.474 18.28 40.755 40.755 40.755z" />
<glyph unicode="&#xe93c;" glyph-name="isyeri" d="M1025.576 568.743v3.201l-58.175 160.729v107.497h-909.225v-107.497l-58.175-160.729v-3.201c0-48.076 33.906-88.331 79.049-98.252v-312.321h-63.528v-102.341h36.413v65.928h588.068v-65.928h222.016v65.928h111.641v-65.928h36.413v102.341h-63.545v312.321c45.141 9.921 79.047 50.175 79.047 98.252zM930.987 803.757v-56.060h-836.398v56.060h836.398zM36.484 565.737l52.664 145.547h847.281l52.662-145.547c-1.564-34.012-29.744-61.216-64.149-61.216-35.417 0-64.22 28.805-64.22 64.222h-36.413c0-35.417-28.805-64.222-64.222-64.222s-64.238 28.805-64.238 64.222h-36.413c0-35.417-28.821-64.222-64.238-64.222-35.401 0-64.204 28.805-64.204 64.222h-36.413c0-35.417-28.803-64.222-64.22-64.222-35.435 0-64.256 28.805-64.256 64.222h-36.413c0-35.417-28.805-64.222-64.204-64.222-35.417 0-64.22 28.805-64.22 64.222h-36.413c0-35.417-28.823-64.222-64.24-64.222-34.403 0-62.567 27.186-64.131 61.216zM531.226 158.171h-331.256v250.519h331.256v-250.519zM825.606 92.243h-149.19v316.446h149.19v-316.446zM862.019 158.171v286.932h-222.016v-286.932h-72.364v286.932h-404.082v-286.932h-48.094v311.146c27.86 4.144 52.076 19.647 67.599 41.748 18.223-25.959 48.378-42.957 82.427-42.957s64.204 16.998 82.41 42.957c18.223-25.959 48.397-42.957 82.463-42.957 34.048 0 64.202 16.998 82.427 42.957 18.207-25.959 48.362-42.957 82.41-42.957 34.066 0 64.22 16.998 82.445 42.975 18.225-25.977 48.378-42.975 82.445-42.975 34.048 0 64.204 16.998 82.428 42.957 15.521-22.117 39.738-37.604 67.599-41.748v-311.146h-48.096zM338.813 337.034l25.742 25.749 65.644-65.626-25.742-25.749-65.644 65.626zM308.464 270.27l25.742 25.749 65.643-65.625-25.742-25.749-65.643 65.625zM701.877 266.877h36.413v-36.413h-36.413v36.413z" />
<glyph unicode="&#xe93d;" glyph-name="goz" d="M512 960c-282.224 0-512-229.776-512-512s229.776-512 512-512 512 229.776 512 512-229.776 512-512 512zM512-14.048c-254.751 0-462.048 207.297-462.048 462.048s207.297 462.048 462.048 462.048 462.048-207.297 462.048-462.048-207.297-462.048-462.048-462.048zM512 380.214c-37.38 0-67.786 30.406-67.786 67.786s30.406 67.786 67.786 67.786 67.786-30.406 67.786-67.786-30.406-67.786-67.786-67.786v0zM512 555.468c-59.265 0-107.468-48.203-107.468-107.468s48.203-107.468 107.468-107.468 107.468 48.203 107.468 107.468-48.203 107.468-107.468 107.468v0zM512 304.243c-116.634 0-217.971 107.944-248.953 144.51 30.981 36.289 132.070 143.003 248.953 143.003 116.614 0 217.902-106.753 248.953-143.032-30.922-36.586-132.050-144.481-248.953-144.481v0zM802.37 460.758c-5.268 6.964-130.701 170.681-290.37 170.681s-285.102-163.716-290.37-170.681l-8.988-11.895 8.938-11.934c5.258-7.044 130.691-172.367 290.42-172.367s285.162 165.324 290.42 172.367l8.938 11.934-8.988 11.895z" />
<glyph unicode="&#xe93e;" glyph-name="date-picker-prev" d="M512 960c-282.316 0-512-229.684-512-512s229.684-512 512-512 512 229.684 512 512-229.684 512-512 512zM512 929.882c265.713 0 481.882-216.169 481.882-481.882s-216.169-481.882-481.882-481.882-481.882 216.169-481.882 481.882 216.169 481.882 481.882 481.882zM600.011 234.813l-205.356 213.187 205.356 213.188 29.334-30.456-176.020-182.732 176.020-182.73z" />
<glyph unicode="&#xe93f;" glyph-name="date-picker-next" d="M512 960c-282.316 0-512-229.684-512-512s229.684-512 512-512 512 229.684 512 512-229.684 512-512 512zM512 929.882c265.713 0 481.882-216.169 481.882-481.882s-216.169-481.882-481.882-481.882-481.882 216.169-481.882 481.882 216.169 481.882 481.882 481.882zM423.989 234.813l205.356 213.187-205.356 213.188-29.334-30.456 176.020-182.732-176.020-182.73z" />
<glyph unicode="&#xe940;" glyph-name="unlem" d="M455.6 179.2h107.8v98.2h-107.8v-98.2zM466.4 320h86.4l21.2 426.6h-129l21.4-426.6zM509 960c-282.6 0-512-229.4-512-512s229.4-512 512-512c282.6 0 512 229.4 512 512s-229.4 512-512 512zM509 21.4c-235.8 0-426.6 191-426.6 426.6 0 235.8 191 426.6 426.6 426.6s426.6-190.8 426.6-426.6c0-235.8-190.8-426.6-426.6-426.6z" />
<glyph unicode="&#xe941;" glyph-name="engelli" d="M441 744.2c59.4 0 107.6 48.2 107.6 107.6s-48.2 107.6-107.6 107.6c-59.4 0-107.6-48.2-107.6-107.6s48.2-107.6 107.6-107.6zM883.4 199h-47.8l-131 157.4c-9.4 11.4-23.6 18-38.4 18h-180v91.8h142.8c27.6 0 49.8 22.4 49.8 49.8 0 27.6-22.4 49.8-49.8 49.8h-142.8v101.2c0 27.6-22.4 49.8-49.8 49.8-27.6 0-49.8-22.4-49.8-49.8v-342.6c0-27.6 22.4-49.8 49.8-49.8h206.4l131-157.4c9.4-11.4 23.6-18 38.4-18h71.2c27.6 0 49.8 22.4 49.8 50 0 27.4-22.2 49.8-49.8 49.8zM398 36c-114.6 0-207.8 93.2-207.8 207.8 0 95.6 65 176.2 153 200.4v102.2c-143.8-25.8-252.8-151.6-252.8-302.6 0-169.8 137.6-307.6 307.6-307.6 135 0 249.8 87.2 291.2 208.2l-83.4 96.4c-1.6-113.2-94.2-204.8-207.8-204.8z" />
<glyph unicode="&#xe942;" glyph-name="doviz" d="M76.2 253.8c-41.4 90.8-52.8 194.8-32.2 293.2 21.4 102 74.6 193 153.8 263 84.8 74.8 194.4 116 309.2 116 8.2 0 16.2-0.2 24.4-0.6 123-6.2 238.6-57.6 325.8-145l31.6-31.8h-95.8l-15-3v-31.2h174.8l-0.2 160.2-3 15h-31.2v-122.2l-37.4 37.4c-92.8 93.2-216.4 148.2-348 154.8-8.6 0.4-17.4 0.6-26 0.6-123 0-240.8-44.2-331.8-124.4-85-75-142-172.4-164.8-281.8-22-105.4-9.8-217.2 35.2-315.6l8.8-12.4 28.4 12.8-6.6 15zM978.6 656.4l-6.6 14.6-31.4-14 6.8-14.8c41.4-90.8 52.8-194.8 32.2-293.2-21.4-102-74.6-193-153.8-263-84.6-74.6-194.6-115.8-309.8-115.8-7.8 0-15.8 0.2-23.6 0.6-122.8 6.2-238.6 57.6-325.8 145l-31 31h94.2l15 3v31.2h-175.2v-175h34.4v123.6l38-38.2c93.2-93.4 217-148.6 348.4-155 8.8-0.4 17.4-0.6 26-0.6 123 0 240.8 44.2 331.8 124.4 85 75 142 172.4 164.8 281.8 22 105.4 9.8 217.2-34.4 314.4zM607.2 224l18 0.6 261.2 161.8-23 34.8-248.2-153.2-129 69.2-0.8 26.6v4l122-65.8 18 0.6 259 159.8-1.6 32.6-89.8 47.4-35.4 19.2-1.4 30.6-174.6 95.2-18.2-0.6-16-10.6-131.2 70.8-18-0.6-259-160 1.6-32.6 134.4-72 0.8-26.4v-4l-119 63.2-18.4-37.2 136.6-73.2 0.8-24.6v-3.2l-119 63.2-18.4-37.2 136.4-73.2 0.2-18.6 9.6-15.8 174.4-93.4 23.8 14.8 124.2-67.2 18.2 0.6 261.2 161.8-23 34.6-248.2-153.2-129 69.2-0.8 24.6v3l121.6-65.6zM797.2 493.8l31-16.8-212.8-131.4-77.4 40.8-31.6 17 212.8 131.6 78-41.2zM223.2 556.6l-27.8 15 213.4 131.2 70.8-37.2 26.8-14.6-211.2-132.2-72 37.8zM452.2 420l0.6-11.4v-157.6l-137.8 78.8v157.6l259.2 155.8 90.8-48.6 36.8-20-249.6-154.6z" />
<glyph unicode="&#xe943;" glyph-name="satilik-gayrimenkul" d="M1013 480l-490.4 407.6c-8.2 5.8-19.4 5.8-27.6 0l-484-407.6c-10.6-7.6-13-22.4-5.4-33s22.4-13 33-5.4l105.4 89c0-0.6-0.2-1.4-0.2-2v-500.8c0-13.2 10.6-23.6 23.6-23.6h230.8c13 0 23.6 10.6 23.6 23.6v326.6h177.4v-326.8c0-13.2 10.6-23.6 23.6-23.6h233c13 0 23.6 10.6 23.6 23.6v501c0 0.2 0 0.4 0 0.8l105.4-88c4.2-3 9-4.4 13.8-4.4 7.4 0 14.6 3.4 19.2 9.8 8.2 10.8 5.8 25.4-4.8 33.2zM832.8 528.6v-477.2h-185.6v326.6c0 13-10.6 23.6-23.6 23.6h-225.2c-13 0-23.6-10.6-23.6-23.6v-326.8h-183.6v477.4c0 12.4-9.6 22.6-21.8 23.6l339.4 287 344-287.2c-11.4-1.8-20-11.6-20-23.4z" />
<glyph unicode="&#xe944;" glyph-name="sozlesme-formlar" d="M901 960h-778c-11.4 0-20.6-9.2-20.6-20.6v-983c0-11.4 9.2-20.6 20.6-20.6h778c11.4 0 20.6 9.2 20.6 20.6v983c0 11.4-9.2 20.6-20.6 20.6zM880.4-23h-736.8v942h737v-942zM245 545c11.4 0 20.6 9.2 20.6 20.6v230.2h228c11.4 0 20.6 9.2 20.6 20.6s-9.2 20.6-20.6 20.6h-248.6c-11.4 0-20.6-9.2-20.6-20.6v-250.6c0-11.6 9.2-20.8 20.6-20.8zM651.2 795.8h129.8c11.4 0 20.6 9.2 20.6 20.6s-9.2 20.6-20.6 20.6h-129.8c-11.4 0-20.6-9.2-20.6-20.6s9.2-20.6 20.6-20.6zM651.2 672.6h129.8c11.4 0 20.6 9.2 20.6 20.6s-9.2 20.6-20.6 20.6h-129.8c-11.4 0-20.6-9.2-20.6-20.6s9.2-20.6 20.6-20.6zM651.2 549.4h129.8c11.4 0 20.6 9.2 20.6 20.6s-9.2 20.6-20.6 20.6h-129.8c-11.4 0-20.6-9.2-20.6-20.6s9.2-20.6 20.6-20.6zM244.4 427.4h536.4c11.4 0 20.6 9.2 20.6 20.6s-9.2 20.6-20.6 20.6h-536.4c-11.4 0-20.6-9.2-20.6-20.6 0.2-11.4 9.4-20.6 20.6-20.6zM244.4 305.6h536.4c11.4 0 20.6 9.2 20.6 20.6s-9.2 20.6-20.6 20.6h-536.4c-11.4 0-20.6-9.2-20.6-20.6 0.2-11.4 9.4-20.6 20.6-20.6zM244.4 182.4h536.4c11.4 0 20.6 9.2 20.6 20.6s-9.2 20.6-20.6 20.6h-536.4c-11.4 0-20.6-9.2-20.6-20.6 0.2-11.4 9.4-20.6 20.6-20.6zM244.4 59.2h536.4c11.4 0 20.6 9.2 20.6 20.6s-9.2 20.6-20.6 20.6h-536.4c-11.4 0-20.6-9.2-20.6-20.6 0.2-11.4 9.4-20.6 20.6-20.6z" />
<glyph unicode="&#xe945;" glyph-name="hesaplama-araclari" d="M348.2 468.4h-82.4v-82h82.4v82zM143 960v-1024h737.8v1024h-737.8zM839.2-23.8h-655l0.6 941h654.4v-941zM758.4 836h-492.8v-245.8h492.6v245.8zM715.6 631.6h-408.4v163h408.4v-163zM675.2 386.4h82.4v82h-82.4v-82zM470.4 386.4h82.4v82h-82.4v-82zM348.2 304.4h-82.4v-82h82.4v82zM675.2 222.4h82.4v82h-82.4v-82zM470.4 222.4h82.4v82h-82.4v-82zM348.2 139.4h-82.4v-82h82.4v82zM675.2 57.4h82.4v82h-82.4v-82zM470.4 57.4h82.4v82h-82.4v-82z" />
<glyph unicode="&#xe946;" glyph-name="kampanyalar" d="M534.6 958c-14.4 0-26-11.6-26-26s11.6-26 26-26c236.2 0 428.4-192.2 428.4-428.2 0-14.4 11.6-26 26-26s26 11.6 26 26c0 264.6-215.6 480.2-480.4 480.2zM534.6 824.6c-14.4 0-26-11.6-26-26s11.6-26 26-26c162.6 0 294.8-132.2 294.8-294.8 0-14.4 11.6-26 26-26s26 11.6 26 26c0.2 191.2-155.6 346.8-346.8 346.8zM362.6 795.4c-6.4 4.2-14.2 5.4-21.2 3.4-7.2-2-13.2-7-16.4-13.8l-182.8-379.8c-5.8-11.8-1.8-26 9.2-33.2 0.6-0.4 1-0.8 1.6-1l-89-89c-35.4-35.4-55-82.4-55-132.6 0-50 19.6-97.2 55-132.6 35.4-35.2 82.4-54.8 132.6-54.8 38.8 0 75.6 11.6 106.8 33.2 0.8-1.2 1.8-2.4 3-3.6 34.2-34.2 77.6-53.8 119.2-53.8h0.2c29.8 0 55.6 10.2 74.6 29.4 10.2 10.2 10 26.8-0.2 36.8-10.2 10.2-26.8 10.2-36.8-0.2-11.4-11.6-26.8-14-37.8-14-27.4 0-58.2 14.4-82.2 38.6-0.4 0.4-0.8 0.6-1.2 1l76.2 76.2c0.4-0.6 0.6-1 1-1.6 4.8-7.4 13-11.8 21.8-11.8 4 0 7.8 0.8 11.2 2.6l379.6 182.8c6.8 3.2 11.8 9.2 13.8 16.6 2 7.2 0.8 15-3.4 21.4-126.2 192.2-287.8 353.6-479.8 479.8zM292.2 53.8c-24.4-24.4-59.2-38.4-95.8-38.4s-71.4 14-95.8 38.4c-25.6 25.6-39.6 59.4-39.6 95.6s14.2 70.2 39.6 95.6l95.6 95.4c73-54.2 137-118.2 191.4-191.2l-95.4-95.4zM450 152c-68 98.6-152.4 183-251 251l159.8 332.4c167-114 309.4-256.4 423.6-423.6l-332.4-159.8z" />
<glyph unicode="&#xe947;" glyph-name="download" d="M976 392.2c-26.4 0-48-21.6-48-48v-245.2h-832v245.2c0 26.4-21.6 48-48 48s-48-21.6-48-48v-293.4c0-26.4 21.6-48 48-48h928c26.4 0 48 21.6 48 48v293.4c0 26.8-21 48-48 48zM479.4 248.6v0c9-9 21.2-14 34-14 13 0 25 5 34 14l191 191c9 9 14 21 14 33.6s-5 24.4-14 33.6c-9 9-21 14-33.6 14s-24.6-5-33.6-14l-109-109v447.4c0 26.4-21.6 48-48 48s-48-21.6-48-48v-448.6l-111 111c-18.8 18.8-48.2 18.8-67 0s-18.8-48.2 0-67l191.2-192z" />
<glyph unicode="&#xe948;" glyph-name="konut2" horiz-adv-x="1358" d="M1088.321 443.685h-459.146v-307.432h459.146v307.432zM1041.953 182.621h-366.411v214.697h366.411v-214.697zM1208.405 74.332v439.222h65.295v138.604l-214.994 111.277v142.364h20.242v46.367h-183.387v-46.367h20.242v-68.396l-236.863 122.598-594.807-307.842v-138.604h65.295v-439.222h-149.426v-138.332h46.367v91.965h225.452v-91.965h267.563v91.965h772.081v-91.965h46.367v138.332h-149.426zM1227.332 559.922h-373.927l-0.274 5.23c-0.542 10.959-2.172 21.621-4.662 31.945h378.863v-37.175zM962.169 905.799h50.169v-118.364l-50.169 25.968v92.396zM678.939 907.79l510.674-264.326h-359.574c-30.201 52.39-86.665 87.37-151.1 87.37s-120.945-34.98-151.192-87.37h-359.528l510.72 264.326zM806.855 562.796h-255.881c3.443 67.764 59.274 121.67 127.965 121.67 68.598 0 124.475-53.907 127.916-121.67zM130.499 559.922v37.175h378.819c-2.446-10.324-4.122-20.986-4.665-31.945l-0.271-5.23h-373.883zM493.015-17.633h-174.828v414.951h174.828v-414.951zM1162.038 74.332h-622.656v369.353h-267.563v-369.353h-76.026v439.222h966.245v-439.222zM423.872 198.221h46.367v-46.367h-46.367v46.367z" />
<glyph unicode="&#xe949;" glyph-name="tasit" d="M227.4 307.6h93.8c33.4-0.2 60.8 26.8 61 60.2 0.2 27.8-18.6 52.2-45.6 59l-93.8 24.6c-32.4 8.6-65.6-10.8-74-43.2-1.4-5-2-10.2-2-15.4v-24.6c-0.2-33.4 27-60.6 60.6-60.6v0zM208.6 392.8c0 10.4 8.4 18.8 18.8 18.8 1.6 0 3.2-0.2 4.8-0.6l93.8-24.6c10.2-2.4 16.4-12.6 14-22.8-2-8.6-9.8-14.6-18.8-14.4h-93.8c-10.4 0-18.8 8.4-18.8 18.8v24.8zM783 451.4l-93.8-24.6c-32.4-8.2-52-41.2-43.8-73.6 6.8-27 31.4-45.8 59.2-45.6h93.8c33.4 0 60.6 27.2 60.6 60.6v24.6c0 33.4-27.2 60.6-60.6 60.6-5.2 0-10.4-0.6-15.4-2zM810 407.8c4.6-3.6 7.4-9.2 7.4-15v-24.6c0-10.4-8.4-18.8-18.8-18.8h-93.8c-10.4-0.2-19 8-19.2 18.4-0.2 8.8 5.8 16.8 14.4 18.8l93.8 24.6c1.6 0.4 3.2 0.6 4.8 0.6 4 0 8-1.4 11.4-4zM241.6 529.4h542.4c11.6 0 20.8 9.4 20.8 20.8 0 2.6-0.4 5.2-1.4 7.8-17.6 44.6-52.2 126.8-69.8 152-12.8 18.2-31.2 28-63.2 33.6-52.2 7.8-104.8 11.2-157.6 10-52.6 1.2-105.2-2-157-9.8-32.2-5.6-50.4-15.4-63.2-33.6-17.6-25.4-52.2-107.6-69.8-152-4.2-10.8 1-22.8 11.6-27.2 2.2-1 4.8-1.6 7.2-1.6zM326.4 685.8c3.2 4.6 8 11.4 36.2 16.4 49.8 7.4 100 10.6 150.2 9.6 50.2 1.2 100.2-2 149.8-9.2 28.2-5 33-11.8 36-16.2 20.6-37 38.6-75.2 53.8-114.8h-479.4c15.2 39.4 33.2 77.8 53.8 114.6l-0.4-0.4zM62.4 469.4c-18.4-35.4-27.4-74.8-26.6-114.8v-244.6c0-39.8 32.2-72 72-72h66c39.8 0 72 32.2 72 72v17.6h534v-17.6c0-39.8 32.2-72 72-72h66.2c39.8 0 72 32.2 72 72v244c1 39.8-8.2 79.4-26.4 114.8 34.6 6 60 35.8 60.6 71 0 14.6 0 26.4 0 37.6v0c-1 38.2-31.6 69-69.8 70-6.4 0-13 0-19.8 0-16.8-0.4-33.4-5-47.8-13.6-17.8 42.6-46 107-66.2 136.2-38.6 55.4-93.8 70.8-131.8 77.4-58 9-116.8 13-175.6 11.8-58.6 1.2-117.2-2.6-175.2-11.4-38-6.6-93.2-22-131.8-77.4-20.2-29.2-48.6-93.8-66.2-136.2-14.6 8.6-31 13.4-48 13.6-6.6 0-13 0-19.6 0-38.8-0.8-69.8-31.8-70.6-70.4 0-10.4 0-22.8 0-37.6 0.6-35 26.2-64.4 60.6-70.4zM43.4 575.8c0 16.4 13.2 29.8 29.6 29.8h18c16.4-1 31.8-8 43.2-20 8.4-7.8 21.6-7.4 29.4 1 1.8 1.8 3.2 4 4.2 6.4 29.2 72.2 56.8 131 72 153 29.4 41.8 71.4 54.2 104.4 60 55.6 8.4 111.8 11.8 168 10.4 56.2 1.4 112.4-2 168-10.4 33.4-5.8 75.4-18 104.4-60 15.4-22.2 43-80.6 72-153 4.4-10.6 16.4-15.8 27.2-11.6 2.4 1 4.6 2.4 6.4 4.2 11.2 11.8 26.6 19 42.8 20h18.2c16.4 0.6 30.2-12.4 30.8-28.8 0-0.4 0-0.8 0-1 0-10.4 0-20.8 0-35 0-17.2-14-31.2-31.2-31.2h-24.6c-11.6 0-20.8-9.4-20.8-20.8 0-4.6 1.4-9 4.2-12.6 2.4-3.2 4.6-6.2 6.8-9.4 21.8-33.4 32.6-72.4 31.2-112.2v-244.6c0-16.8-13.6-30.2-30.2-30.2v0h-65.6c-16.8 0-30.2 13.6-30.2 30.2v0 38.4c0 11.6-9.4 20.8-20.8 20.8h-575.8c-11.6 0-20.8-9.4-20.8-20.8v-38.4c0-16.8-13.6-30.2-30.2-30.2v0h-66.4c-16.8 0-30.2 13.6-30.2 30.2v0 244.6c-1.2 39.6 9.6 78.6 31.2 111.8 2.2 3.2 4.4 6.4 6.8 9.4 7 9.2 5 22.2-4.2 29.2-3.6 2.8-8 4.2-12.6 4.2h-3l-21 0.4c-17.2 0-31.2 14-31.2 31.2 0 13.8 0 25 0 35z" />
<glyph unicode="&#xe94a;" glyph-name="tuketici" horiz-adv-x="899" d="M874.146 65.873c-2.498 49.951-49.951 99.902-117.385 117.385l-119.883 32.468c-42.459 9.99-42.459 24.976-42.459 32.468v84.917c37.463 22.478 79.922 59.941 79.922 117.385v52.449l14.985 17.483c14.985 12.488 24.976 32.468 24.976 52.449v79.922c0 9.99-4.995 17.483-12.488 22.478l-27.473 9.99v44.956c0 112.39-92.41 204.8-204.8 204.8h-39.961c-112.39 0-204.8-92.41-204.8-204.8v-44.956l-24.976-14.985c-7.493-4.995-12.488-12.488-12.488-22.478v-79.922c0-19.98 9.99-39.961 24.976-52.449l12.488-14.985v-52.449c0-57.444 42.459-94.907 79.922-117.385v-84.917c0-7.493 0-19.98-42.459-32.468l-119.883-32.468c-64.937-17.483-117.385-87.415-117.385-137.366v-57.444c0-14.985 9.99-24.976 24.976-24.976 12.488 0 24.976 9.99 24.976 24.976v59.941c0 27.473 37.463 77.424 82.42 89.912l119.883 32.468c52.449 12.488 79.922 39.961 79.922 79.922v59.941c2.498 0 2.498-2.498 4.995-2.498 17.483-7.493 52.449-22.478 89.912-22.478 39.961 0 74.927 14.985 89.912 22.478 0 0 2.498 0 4.995 2.498v-59.941c0-39.961 27.473-67.434 79.922-79.922l119.883-32.468c44.956-12.488 79.922-42.459 79.922-69.932v-79.922c0-14.985 9.99-24.976 24.976-24.976s24.976 9.99 24.976 24.976l-2.498 79.922zM529.483 355.59c-4.995-2.498-7.493-2.498-9.99-4.995-9.99-4.995-37.463-17.483-69.932-17.483-29.971 0-57.444 12.488-69.932 17.483-2.498 0-4.995 2.498-9.99 4.995s-14.985 4.995-22.478 9.99c-2.498 2.498-7.493 4.995-12.488 7.493-27.473 14.985-59.941 39.961-59.941 77.424v59.941c0 4.995-2.498 9.99-4.995 14.985l-22.478 27.473c-2.498 2.498-2.498 4.995-4.995 4.995-4.995 2.498-7.493 7.493-7.493 12.488v62.439l27.473 12.488c7.493 4.995 12.488 12.488 12.488 22.478v62.439c0 84.917 69.932 154.849 154.849 154.849h39.961c84.917 0 154.849-69.932 154.849-154.849v-59.941c0-9.99 4.995-17.483 12.488-22.478l27.473-12.488v-62.439c0-4.995-2.498-9.99-7.493-12.488-2.498-2.498-4.995-2.498-4.995-4.995l-22.478-27.473c-2.498-4.995-4.995-9.99-4.995-14.985v-59.941c0-34.966-32.468-59.941-59.941-77.424-4.995 0-9.99-2.498-12.488-7.493-9.99-7.493-17.483-9.99-22.478-12.488z" />
<glyph unicode="&#xe94b;" glyph-name="filtre" d="M970.8 932.6c-9.8 16.6-26.4 26.4-45.8 26.4h-827.4c-18 0-36.2-11.2-44.4-27.8-9.8-16.6-8.4-36.2 1.4-52.8 0-1.4 1.4-1.4 1.4-2.8l335-442.2v-461.6c0-14 8.4-26.4 20.8-32 4.2-1.4 8.4-2.8 14-2.8 9.8 0 18 4.2 25 9.8l171 171c7 7 9.8 15.2 9.8 25v290.6l336.4 443.6c0 1.4 1.4 1.4 1.4 2.8 9.8 16.6 11.2 36 1.4 52.8zM570.4 465.4c-4.2-5.6-7-14-7-20.8v-287.8l-101.4-101.6v389.4c0 7-2.8 15.2-7 20.8l-321.2 424h756.4l-319.8-424z" />
<glyph unicode="&#xe94c;" glyph-name="video-play" d="M233.2 783l486.6-335-486.6-335v670zM140 960v-1024l744 512-744 512z" />
<glyph unicode="&#xe94d;" glyph-name="sound" d="M502.6 857.4l-278-227.4-155.8-14.8c-32.6-3-56.8-30.4-56.8-62v-210.6c0-32.6 24.2-60 56.8-62.2l155.8-14.8 277.8-227.4c23.2-19 56.8-2.2 56.8 27.4v765.6c-0.8 28.4-34.6 45.2-56.6 26.2zM764.6 701.6c-7.4 9.4-22.2 11.6-31.6 3.2l-37.8-33.6c-8.4-7.4-9.4-20-2.2-29.4 42.2-52.6 67.4-120 67.4-192.6s-25.2-140-67.4-192.6c-7.4-8.4-6.4-22.2 2.2-29.4l37.8-33.6c9.4-8.4 23.2-7.4 31.6 3.2 55.8 69.4 89.4 157.8 89.4 253.6s-32.6 181.8-89.4 251.2zM880.4 809c-7.4 9.4-22.2 9.4-30.6 2.2l-37.8-34.8c-8.4-7.4-9.4-21-2.2-29.4 67.4-81 107.4-185.2 107.4-297.8s-40-216.8-107.4-297.8c-7.4-9.4-6.4-22.2 2.2-29.4l37.8-34.8c8.4-8.4 23.2-7.4 30.6 2.2 82.2 97.6 131.6 222.8 131.6 360.6s-49.4 261.2-131.6 359z" />
<glyph unicode="&#xe94e;" glyph-name="sound-close" d="M68.6 279.8l99.2-9.8 391.4 391.4v169.4c0 29.2-33.4 45.2-57.2 27l-278-227.6-155.2-15c-32.4-3.2-57.2-30.2-57.2-62.6v-210.2c0-32.4 24.8-59.4 57-62.6zM1019.8 906.4l-49.6 49.6c-5.4 5.4-14 5.4-19.4 0l-946.8-947c-5.4-5.4-5.4-14 0-19.4l49.6-49.6c5.4-5.4 14-5.4 19.4 0l247 247 182.2-148.8c22.6-18.4 57.2-2.2 57.2 27v361.2l167.2 167.2c22.6-43.2 35.6-91.6 35.6-144.6 0-73.4-24.8-140.2-68-193-7.6-8.6-5.4-21.6 2.2-29.2l37.8-34.6c9.8-8.6 23.8-6.4 31.2 3.2 56 69 89.6 157.4 89.6 254.6 0 77.6-22.6 151-60.4 213.6l46.4 46.4c49.6-74.4 78.8-162.8 78.8-258.8 0-113.2-41-217.8-107.8-298.8-7.6-8.6-6.4-21.6 2.2-29.2l37.8-34.6c8.6-8.6 22.6-7.6 31.2 2.2 82 98.2 130.4 223.2 130.4 360.2 0 121.8-38.8 234-104.6 326.8l112.2 112.2c4 2.4 4 11-1.4 16.4z" />
<glyph unicode="&#xe94f;" glyph-name="modal-play" d="M853.2 528.4c-220.8 133.4-439.8 269.8-659.4 405.2-75.4 46.6-99.4 27.4-99.4-67.2 0-282.8 0-565.8 0-848.8 0-93.6 30-96.6 104.2-50.8 219.6 135.4 435.4 267.6 655.2 402.6 102.8 63.2 99.8 98.4-0.6 159z" />
<glyph unicode="&#xe950;" glyph-name="fullscreen" d="M429.2 274.8l-90.4 90.4c0 0-107-107-192-192l-146.8 146.8v-384h384l-146.8 146.8c85 85 192 192 192 192zM594.8 621.2l90.4-90.4c0 0 107 107 192 192l146.8-146.8v384h-384l146.8-146.8c-85-85-192-192-192-192zM594.8 274.8l90.4 90.4c0 0 107-107 192-192l146.8 146.8v-384h-384l146.8 146.8c-85 85-192 192-192 192zM429.2 621.2l-90.4-90.4c0 0-107 107-192 192l-146.8-146.8v384h384l-146.8-146.8c85-85 192-192 192-192z" />
<glyph unicode="&#xe951;" glyph-name="pause" d="M192.8-43c0-10.4 8.4-18.8 18.8-18.8h176.4c10.4 0 18.8 8.4 18.8 18.8v982.4c0 10.4-8.4 18.8-18.8 18.8h-176.4c-10.4 0-18.8-8.4-18.8-18.8v-982.4zM636 958.4c-10.4 0-18.8-8.4-18.8-18.8v-982.4c0-10.4 8.4-18.8 18.8-18.8h176.4c10.4 0 18.8 8.4 18.8 18.8v982.4c0 10.4-8.4 18.8-18.8 18.8h-176.4z" />
<glyph unicode="&#xe952;" glyph-name="cc" d="M321.8 274.8c-18-14-40.4-21-67.2-21-25.4 0-46.6 5.6-63.8 16.8s-30.8 25.8-41 43.6c-10.2 18-17.6 38-22 60.2s-6.8 44-6.8 65.4c0 21.4 2.2 44 6.8 67.6 4.4 23.6 12 45.2 22.4 65 10.4 19.6 24.6 35.8 42.2 48.6 17.6 12.6 39.6 19 66 19s48-7 64.6-21c16.6-14 26.6-34.4 29.4-61.2h121c-1 30.4-7.6 56.4-19.8 78s-28.4 39.4-48.6 53c-20.2 13.6-43 23.6-68.4 29.8s-51.6 9.4-78.4 9.4c-42.8 0-80.4-7.2-112.8-21.6-32.2-14.4-59.2-34.4-80.8-59.8s-37.8-55.4-48.6-90c-10.8-34.6-16-72.4-16-113.2 0-41.4 5-78.8 15-112.4s25.2-62.6 46-87c20.6-24.4 47-43.2 78.8-56.4s69.4-19.8 112.8-19.8c27.8 0 54.6 3 80.2 9s48.6 15.6 68.6 29.2c20.2 13.4 36.8 30.8 50 52.2s21.6 47.6 25 78.4h-121.8c-3.8-27.2-14.8-47.8-32.8-61.8zM902.2 336.8c-4-27.4-15-48-32.8-62-18-14-40.4-21-67.2-21-25.4 0-46.6 5.6-63.8 16.8s-30.8 25.8-41 43.6c-10.2 18-17.6 38-22 60.2s-6.8 44-6.8 65.4c0 21.4 2.2 44 6.8 67.6 4.4 23.6 12 45.2 22.4 65 10.4 19.6 24.6 35.8 42.2 48.6 17.6 12.6 39.6 19 66 19s48-7 64.6-21c16.6-14 26.6-34.4 29.4-61.2h121c-1 30.4-7.6 56.4-19.8 78s-28.4 39.4-48.6 53c-20.2 13.6-43 23.6-68.4 29.8s-51.6 9.4-78.4 9.4c-42.8 0-80.4-7.2-112.8-21.6s-59.4-34.4-81-59.8c-21.6-25.4-37.8-55.4-48.6-90s-16-72.4-16-113.2c0-41.4 5-78.8 15-112.4s25.2-62.6 46-87c20.6-24.4 47-43.2 78.8-56.4s69.4-19.8 112.8-19.8c27.8 0 54.6 3 80.2 9s48.6 15.6 68.6 29.2c20.2 13.4 36.8 30.8 50 52.2s21.6 47.6 25 78.4h-121.6z" />
<glyph unicode="&#xe953;" glyph-name="arrow-down" horiz-adv-x="1920" d="M1900.8 851.2l-896-896c-25.6-25.6-64-25.6-89.6 0l-896 896c-25.6 25.6-25.6 64 0 89.6s64 25.6 89.6 0l851.2-851.2 851.2 851.2c25.6 25.6 64 25.6 89.6 0s25.6-64 0-89.6z" />
<glyph unicode="&#xe954;" glyph-name="mailto" horiz-adv-x="1554" d="M54.253 960c-29.839 0-54.253-24.413-54.253-54.253v-917.149c0-28.927 23.669-52.597 52.598-52.597h1448.458c28.929 0 52.598 23.67 52.598 52.597v918.806c0 28.927-23.669 52.597-52.598 52.597h-1446.802zM189.793 854.069h1174.068l-587.034-524.34-587.034 524.34zM105.931 787.309l396.689-354.757-396.689-328.274v683.031zM1447.723 787.309v-683.035l-396.689 328.278 396.689 354.757zM582.62 361.378l152.162-136.146c23.938-21.417 60.151-21.417 84.089 0l152.162 136.146 386.206-319.448h-1160.826l386.206 319.448z" />
<glyph unicode="&#xe955;" glyph-name="kredi_karti_hemen_basvur" d="M234.2 427.6h345.4c16.8 0 30.4 13.6 30.4 30.4s-13.6 30.4-30.4 30.4h-345.4c-16.8 0-30.4-13.6-30.4-30.4 0-16.6 13.6-30.4 30.4-30.4zM234.2 265.2h475.4c16.8 0 30.4 13.6 30.4 30.4s-13.6 30.4-30.4 30.4h-475.4c-16.8 0-30.4-13.6-30.4-30.4s13.6-30.4 30.4-30.4zM902.8 813.8h-780.4c-66.8 0-121.8-54.4-121.8-121.6v-488.2c0-66.6 54.6-121.6 121.8-121.6h780.4c66.8 0 121.8 54.4 121.8 121.6v488c0 66.8-54.6 121.8-121.8 121.8zM963.6 204c0-33.6-27.2-60.6-61.2-60.6h-779.6c-33.8 0-61.2 27-61.2 60.6v386.2h902v-386.2zM963.6 651.2h-902v40.8c0 33.6 27.2 60.6 61.2 60.6h779.6c33.8 0 61.2-27 61.2-60.6v-40.8z" />
<glyph unicode="&#xe956;" glyph-name="limit_artis" d="M199.8 156.6c11.4 0 23 4.2 31.2 12.6l254.4 254.4 63.6-82.4c7.4-10.4 19.8-15.6 32.4-16.6s25 4.2 33.4 12.6l316 316 1-126.2c0-10.4 4.2-20.8 12.6-29.2 7.2-7.4 17.8-11.4 29.2-11.4 10.4 0 20.8 4.2 29.2 12.6 7.4 7.4 12.6 17.8 11.4 29.2l-3.2 225.2c0 23-18.8 40.6-40.6 40.6h-226.4c-23 0-40.6-18.8-40.6-40.6 0-23 18.8-40.6 40.6-40.6h122l-279.4-279.8-63.6 82.4c-7.2 10.4-19.8 15.6-32.4 16.6s-25-4.2-33.4-12.6l-288.8-288.8c-16.6-16.6-16.6-44.8 0-61.6 8.4-8.2 20-12.4 31.4-12.4zM980.8 70h-892.6v799.8c0 24-19.8 43.8-43.8 43.8s-43.8-19.8-43.8-43.8v-842.6c0-24 19.8-43.8 43.8-43.8h936.4c24 0 43.8 18.8 43.8 42.8s-19.8 43.8-43.8 43.8z" />
<glyph unicode="&#xe957;" glyph-name="ogs_web" d="M869.6 712.8h-90.8v-90.8h90.8v90.8zM687.8 712.8h-90.8v-90.8h90.8v90.8zM506.2 712.8h-90.8v-90.8h90.8v90.8zM990.6 881.4c-1.2 0-2.2 0-3.4 0h-950.4c-20 0-36.4-16.2-36.4-36.4v-794.2c0-20 16.2-36.4 36.4-36.4h950.4c20 0 36.4 16.2 36.4 36.4v794.2c0 18.8-14.2 34.6-33 36.4zM950.8 87.2h-877.6v366h877.6v-366zM950.8 526h-877.6v282.8h877.6v-282.8z" />
</font>
</defs>
</svg>
